<?xml version="1.0"?>
<svg xmlns="http://www.w3.org/2000/svg" xmlns:xlink="http://www.w3.org/1999/xlink" version="1.1" id="Capa_1" x="0px" y="0px" viewBox="0 0 512 512" style="enable-background:new 0 0 512 512;" xml:space="preserve" width="512px" height="512px" class=""><g><path style="fill:#94C0FD" d="M448,85.227c0,10.453,0.107,32.107,0.107,32.107H245.333V74.667H437.44  c5.713-0.119,10.441,4.416,10.56,10.129C448.003,84.939,448.003,85.083,448,85.227z" data-original="#87D2F3" class="active-path" data-old_color="#87D2F3"/><path style="fill:#FFFFFF;" d="M501.333,320v96H10.667V32C10.702,20.233,20.233,10.702,32,10.667h192  c11.767,0.035,21.298,9.566,21.333,21.333v85.333H480c11.767,0.035,21.298,9.566,21.333,21.333V320z" data-original="#FFFFFF" class=""/><path style="fill:#94C0FD" d="M426.667,331.413c46.717,6.213,79.552,49.12,73.34,95.838c-5.61,42.188-41.448,73.792-84.006,74.082  H96c-47.127-0.322-85.071-38.786-84.749-85.914c0.29-42.558,31.895-78.396,74.082-84.006v-0.747  c0-47.128,38.205-85.333,85.333-85.333h10.667c0-47.128,38.205-85.333,85.333-85.333S352,198.205,352,245.333v0.747  c42.637,5.372,74.628,41.612,74.667,84.587V331.413z" data-original="#87D2F3" class="active-path" data-old_color="#87D2F3"/><g>
	<circle style="fill:#FFFFFF;" cx="362.667" cy="352" r="21.333" data-original="#FFFFFF" class=""/>
	<circle style="fill:#FFFFFF;" cx="256" cy="352" r="21.333" data-original="#FFFFFF" class=""/>
	<circle style="fill:#FFFFFF;" cx="149.333" cy="352" r="21.333" data-original="#FFFFFF" class=""/>
</g><g>
	<path style="fill:#1A70FD" d="M480,106.667h-21.28c-0.053-6.987-0.053-15.808-0.053-21.44   c0.244-11.479-8.864-20.983-20.343-21.227c-0.295-0.006-0.589-0.006-0.884,0H256V32c0-17.673-14.327-32-32-32H32   C14.327,0,0,14.327,0,32v288h21.333V32c0-5.891,4.776-10.667,10.667-10.667h192c5.891,0,10.667,4.776,10.667,10.667v74.667H96V128   h384c5.891,0,10.667,4.776,10.667,10.667V320H512V138.667C512,120.994,497.673,106.667,480,106.667z M256,85.333l181.333,0.192   c0,5.632,0,14.251,0.053,21.131H256L256,85.333z" data-original="#2170A6" class="" data-old_color="##1A70F"/>
	<path style="fill:#1A70FD" d="M469.333,202.667V160c0-5.891-4.776-10.667-10.667-10.667H416v21.333h32v32H469.333z" data-original="#2170A6" class="" data-old_color="##1A70F"/>
	<path style="fill:#1A70FD" d="M436.981,322.379c-3.674-41.659-33.864-76.162-74.667-85.333   c-4.538-52.825-51.039-91.969-103.864-87.432c-45.634,3.92-82.143,39.531-87.197,85.053h-0.587   c-49.748,0.115-91.198,38.147-95.584,87.701C23.371,334.07-9.063,385.478,2.639,437.189C12.517,480.84,51.246,511.873,96,512h128   v-21.333H96c-41.236-0.307-74.416-33.985-74.108-75.221c0.277-37.198,27.893-68.519,64.764-73.451   c5.448-1.013,9.386-5.787,9.344-11.328c0.047-41.218,33.449-74.62,74.667-74.667h10.667c5.891,0,10.667-4.776,10.667-10.667   c0.206-41.237,33.803-74.5,75.04-74.293c41.237,0.206,74.5,33.803,74.293,75.04c0.002,5.378,4.007,9.914,9.344,10.581   c37.543,4.816,65.582,36.902,65.323,74.752c0.001,5.378,4.007,9.914,9.344,10.581c40.873,5.468,69.575,43.035,64.107,83.908   c-4.932,36.871-36.253,64.487-73.451,64.764H288V512h128c53.019-0.141,95.885-43.236,95.745-96.255   C511.626,371.004,480.615,332.276,436.981,322.379z" data-original="#2170A6" class="" data-old_color="##1A70F"/>
	<path style="fill:#1A70FD" d="M266.667,213.333V192c-29.441,0.035-53.298,23.893-53.333,53.333h21.333   C234.667,227.66,248.994,213.333,266.667,213.333z" data-original="#2170A6" class="" data-old_color="##1A70F"/>
	<path style="fill:#1A70FD" d="M373.333,416v-33.963c16.662-5.891,25.394-24.174,19.503-40.837   c-5.891-16.662-24.174-25.394-40.837-19.503c-16.662,5.891-25.394,24.174-19.503,40.837c3.222,9.113,10.39,16.281,19.503,19.503   V416h-85.333c-11.538-0.244-21.089,8.911-21.333,20.449c-0.006,0.295-0.006,0.589,0,0.884V512h21.333v-74.667H352   c11.538,0.244,21.089-8.911,21.333-20.449C373.34,416.589,373.34,416.295,373.333,416z M362.667,341.333   c5.891,0,10.667,4.776,10.667,10.667c0,5.891-4.776,10.667-10.667,10.667c-5.891,0-10.667-4.776-10.667-10.667   C352,346.109,356.776,341.333,362.667,341.333z" data-original="#2170A6" class="" data-old_color="##1A70F"/>
	<path style="fill:#1A70FD" d="M160,382.037c16.662-5.891,25.394-24.174,19.503-40.837c-5.891-16.662-24.174-25.394-40.837-19.503   c-16.662,5.891-25.394,24.174-19.503,40.837c3.222,9.113,10.39,16.281,19.503,19.503V416c-0.244,11.538,8.911,21.089,20.449,21.333   c0.295,0.006,0.589,0.006,0.884,0h64V416h-64V382.037z M149.333,341.333c5.891,0,10.667,4.776,10.667,10.667   c0,5.891-4.776,10.667-10.667,10.667s-10.667-4.776-10.667-10.667C138.667,346.109,143.442,341.333,149.333,341.333z" data-original="#2170A6" class="" data-old_color="##1A70F"/>
	<path style="fill:#1A70FD" d="M245.333,405.333h21.333v-23.296c16.662-5.891,25.394-24.174,19.503-40.837   c-5.891-16.662-24.174-25.394-40.837-19.503c-16.662,5.891-25.394,24.174-19.503,40.837c3.222,9.113,10.39,16.281,19.503,19.503   V405.333z M256,341.333c5.891,0,10.667,4.776,10.667,10.667c0,5.891-4.776,10.667-10.667,10.667   c-5.891,0-10.667-4.776-10.667-10.667C245.333,346.109,250.109,341.333,256,341.333z" data-original="#2170A6" class="" data-old_color="##1A70F"/>
</g></g> </svg>
