<?xml version="1.0" encoding="iso-8859-1"?>
<!-- Generator: Adobe Illustrator 19.0.0, SVG Export Plug-In . SVG Version: 6.00 Build 0)  -->
<svg version="1.1" id="Capa_1" xmlns="http://www.w3.org/2000/svg" xmlns:xlink="http://www.w3.org/1999/xlink" x="0px" y="0px"
	 viewBox="0 0 511.933 511.933" style="enable-background:new 0 0 511.933 511.933;" xml:space="preserve">
<g>
	<g>
		<path d="M491.935,159.98H19.997C8.967,159.98,0,168.951,0,179.977v287.963c0,11.029,8.967,19.997,19.997,19.997h471.939
			c11.03,0,19.998-8.968,19.997-19.997V179.977C511.933,168.951,502.965,159.98,491.935,159.98z M503.934,467.94
			c0,6.616-5.382,11.998-11.999,11.998H19.997c-6.616,0-11.998-5.382-11.998-11.998V179.977c0-6.616,5.382-11.998,11.998-11.998
			h471.938c6.617,0,11.999,5.382,11.999,11.998V467.94z"/>
	</g>
</g>
<g>
	<g>
		<path d="M339.955,303.96c-8.818,0-15.997,7.171-15.997,15.998v7.999H187.976v-7.999c0-8.827-7.171-15.998-15.998-15.998
			c-8.819,0-15.998,7.171-15.998,15.998v23.997c0,8.827,7.179,15.998,15.998,15.998h167.977c8.828,0,15.998-7.171,15.998-15.998
			v-23.997C355.953,311.131,348.783,303.96,339.955,303.96z M347.956,343.954c0,4.406-3.586,7.999-8,7.999H171.978
			c-4.406,0-7.999-3.593-7.999-7.999v-23.997c0-4.405,3.593-7.999,7.999-7.999c4.413,0,7.999,3.594,7.999,7.999v11.999
			c0,2.21,1.789,3.999,3.999,3.999h143.982c2.211,0,4-1.789,4-3.999v-11.999c0-4.405,3.593-7.999,7.998-7.999
			c4.414,0,8,3.594,8,7.999V343.954z"/>
	</g>
</g>
<g>
	<g>
		<path d="M35.995,127.984c-2.211,0-4,1.789-4,3.999v15.998c0,2.211,1.789,4,4,4s4-1.789,4-4v-15.998
			C39.995,129.773,38.206,127.984,35.995,127.984z"/>
	</g>
</g>
<g>
	<g>
		<path d="M475.937,127.984H35.995c-2.211,0-4,1.789-4,3.999c0,2.211,1.789,4,4,4h439.943c2.211,0,4-1.789,3.999-4
			C479.937,129.773,478.148,127.984,475.937,127.984z"/>
	</g>
</g>
<g>
	<g>
		<path d="M475.938,127.984c-2.21,0-3.999,1.789-3.999,3.999v15.998c0,2.211,1.789,4,3.999,4c2.211,0,4-1.789,4-4v-15.998
			C479.938,129.773,478.149,127.984,475.938,127.984z"/>
	</g>
</g>
<g>
	<g>
		<path d="M475.937,95.987H165.634l-22.825-22.825c-0.75-0.75-1.766-1.172-2.828-1.172H59.992c-2.211,0-4,1.789-4,4v19.998H35.995
			c-2.211,0-4,1.789-4,4c0,2.21,1.789,3.999,4,3.999h23.997c2.21,0,3.999-1.789,3.999-3.999V79.99h74.335l22.825,22.825
			c0.75,0.75,1.766,1.172,2.828,1.172h311.959c2.211,0,4-1.79,3.999-4C479.937,97.776,478.148,95.987,475.937,95.987z"/>
	</g>
</g>
<g>
	<g>
		<path d="M475.938,95.988c-2.21,0-3.999,1.789-3.999,4v15.997c0,2.211,1.789,4,3.999,4c2.211,0,4-1.789,4-4V99.988
			C479.938,97.777,478.149,95.988,475.938,95.988z"/>
	</g>
</g>
<g>
	<g>
		<path d="M35.995,95.988c-2.211,0-4,1.789-4,4v15.997c0,2.211,1.789,4,4,4s4-1.789,4-4V99.988
			C39.995,97.777,38.206,95.988,35.995,95.988z"/>
	</g>
</g>
<g>
	<g>
		<path d="M451.941,111.986H59.992c-2.211,0-4,1.789-4,3.999c0,2.211,1.789,4,4,4h391.95c2.211,0,3.999-1.789,3.998-4
			C455.94,113.775,454.152,111.986,451.941,111.986z"/>
	</g>
</g>
<g>
	<g>
		<path d="M451.942,71.99H163.979c-2.211,0-4,1.789-4,4c0,2.21,1.789,3.999,4,3.999h287.963c2.211,0,3.999-1.789,3.999-3.999
			C455.941,73.779,454.153,71.99,451.942,71.99z"/>
	</g>
</g>
<g>
	<g>
		<path d="M451.942,71.99c-2.211,0-4,1.789-4,4v7.999c0,2.21,1.789,3.999,4,3.999s3.999-1.789,3.999-3.999V75.99
			C455.941,73.779,454.153,71.99,451.942,71.99z"/>
	</g>
</g>
<g>
	<g>
		<path d="M451.942,39.995H189.187l-22.989-15.326c-0.657-0.438-1.43-0.672-2.219-0.672h-79.99c-2.211,0-4,1.788-4,3.999v11.999
			H59.992c-2.211,0-4,1.788-4,3.999s1.789,3.999,4,3.999h23.996c2.211,0,4-1.788,4-3.999V31.996h74.78l22.989,15.326
			c0.657,0.438,1.43,0.671,2.219,0.671h263.966c2.211,0,3.999-1.788,3.999-3.999S454.153,39.995,451.942,39.995z"/>
	</g>
</g>
<g>
	<g>
		<path d="M451.942,39.995c-2.211,0-4,1.788-4,3.999v15.998c0,2.211,1.789,3.999,4,3.999s3.999-1.788,3.999-3.999V43.993
			C455.941,41.783,454.153,39.995,451.942,39.995z"/>
	</g>
</g>
<g>
	<g>
		<path d="M59.992,39.995c-2.211,0-4,1.788-4,3.999v15.998c0,2.211,1.789,3.999,4,3.999s3.999-1.788,3.999-3.999V43.993
			C63.991,41.783,62.202,39.995,59.992,39.995z"/>
	</g>
</g>
<g>
	<g>
		<path d="M427.945,55.992H83.989c-2.211,0-4,1.789-4,4s1.79,3.999,4,3.999h343.956c2.21,0,3.999-1.788,3.999-3.999
			S430.155,55.992,427.945,55.992z"/>
	</g>
</g>
<g>
	<g>
		<path d="M27.996,199.974c-2.211,0-4,1.789-4,4v239.969c0,2.21,1.789,3.999,4,3.999s4-1.789,4-3.999V203.974
			C31.996,201.763,30.207,199.974,27.996,199.974z"/>
	</g>
</g>
<g>
	<g>
		<path d="M483.938,199.974c-2.211,0-4,1.789-4,4v239.969c0,2.21,1.789,3.999,4,3.999c2.21,0,3.999-1.789,3.999-3.999V203.974
			C487.937,201.763,486.148,199.974,483.938,199.974z"/>
	</g>
</g>
<g>
</g>
<g>
</g>
<g>
</g>
<g>
</g>
<g>
</g>
<g>
</g>
<g>
</g>
<g>
</g>
<g>
</g>
<g>
</g>
<g>
</g>
<g>
</g>
<g>
</g>
<g>
</g>
<g>
</g>
</svg>
