<?xml version="1.0"?>
<svg xmlns="http://www.w3.org/2000/svg" xmlns:xlink="http://www.w3.org/1999/xlink" version="1.1" id="Capa_1" x="0px" y="0px" viewBox="0 0 511.918 511.918" style="enable-background:new 0 0 511.918 511.918;" xml:space="preserve" width="512px" height="512px" class=""><g><g>
	<rect x="99.99" y="183.97" style="fill:#5C9EFF" width="71.988" height="209.92" data-original="#5C9EFF" class="active-path"/>
	<polygon style="fill:#5C9EFF" points="411.933,168.692 339.944,136.092 339.944,393.89 411.933,393.89  " data-original="#5C9EFF" class="active-path"/>
</g><path style="fill:#94C1FF;" d="M491.919,507.918H19.996c0,0,0-15.997,0-47.992c0-31.994,15.998-43.992,47.992-55.99  c9.44-3.523,23.036-7.116,37.436-11.756c20.794-6.64,43.032-15.279,55.831-28.238c0,0,18.716,39.994,94.703,39.994  c75.989,0,91.985-39.994,91.985-39.994l1.359-1.359c20.873,22.88,71.191,32.636,94.625,41.354  c31.996,11.998,47.992,23.996,47.992,55.99S491.919,507.918,491.919,507.918z" data-original="#94C1FF"/><path style="fill:#D7E9FF;" d="M83.986,403.936c9.439-3.523,23.035-7.116,37.435-11.756c16.025-5.117,32.858-11.443,45.618-19.997  c-4.121-4.804-5.784-8.241-5.784-8.241c-12.799,12.959-35.037,21.599-55.831,28.238c-14.4,4.64-27.995,8.232-37.436,11.756  c-31.995,11.998-47.992,23.996-47.992,55.99c0,31.995,0,47.992,0,47.992h15.998c0,0,0-15.997,0-47.992  C35.993,427.932,51.991,415.934,83.986,403.936z" data-original="#D7E9FF"/><path style="fill:#5C9EFF" d="M427.931,403.936c-9.443-3.523-23.043-7.116-37.439-11.756  c-16.021-5.117-32.861-11.443-45.617-19.997c4.115-4.804,5.787-8.241,5.787-8.241c12.795,12.959,35.033,21.599,55.828,28.238  c14.395,4.64,27.994,8.232,37.438,11.756c31.996,11.998,47.992,23.996,47.992,55.99c0,31.995,0,47.992,0,47.992h-15.996  c0,0,0-15.997,0-47.992C475.923,427.932,459.925,415.934,427.931,403.936z" data-original="#5C9EFF" class="active-path"/><path style="fill:#D7E9FF;" d="M327.478,507.918c-3.984-35.994-34.463-63.989-71.52-63.989c-37.052,0-67.536,27.995-71.52,63.989  L327.478,507.918L327.478,507.918z" data-original="#D7E9FF"/><path style="fill:#FFFFFF;" d="M263.956,444.413c-2.631-0.289-5.287-0.484-7.999-0.484c-37.052,0-67.536,27.995-71.52,63.989h15.998  C204.13,474.557,230.603,448.107,263.956,444.413z" data-original="#FFFFFF"/><path style="fill:#94C1FF;" d="M247.959,444.413c2.632-0.289,5.289-0.484,7.999-0.484c37.057,0,67.536,27.995,71.52,63.989H311.48  C307.786,474.557,281.313,448.107,247.959,444.413z" data-original="#94C1FF"/><path style="fill:#D7E9FF;" d="M394.577,180.456c0,91.61-86.697,175.972-139.979,175.972c-53.273,0-139.978-84.362-139.978-175.972  c0-91.606,62.677-151.976,139.978-151.976C331.907,28.48,394.577,88.849,394.577,180.456z" data-original="#D7E9FF"/><path style="fill:#94C1FF;" d="M254.599,28.48c-2.699,0-5.335,0.246-7.999,0.391c73.567,4.039,131.979,63.177,131.979,151.585  c0,87.166-78.465,167.708-131.979,175.324c2.729,0.391,5.413,0.648,7.999,0.648c53.281,0,139.979-84.362,139.979-175.972  C394.577,88.849,331.907,28.48,254.599,28.48z" data-original="#94C1FF"/><path style="fill:#FFFFFF;" d="M130.619,180.456c0-88.408,58.42-147.546,131.978-151.585c-2.662-0.145-5.299-0.391-7.998-0.391  c-77.3,0-139.978,60.369-139.978,151.976c0,91.61,86.705,175.972,139.978,175.972c2.586,0,5.27-0.258,7.998-0.648  C209.09,348.163,130.619,267.621,130.619,180.456z" data-original="#FFFFFF"/><path style="fill:#94C1FF;" d="M355.942,40.232c0,0-27.84,27.917-73.191,59.752c-46.392,32.553-111.018,69.188-182.768,83.986  v-23.996C99.983,73.828,169.812,4,255.958,4C293.952,4,328.821,17.599,355.942,40.232z" data-original="#94C1FF"/><path style="fill:#D7E9FF;" d="M115.98,159.975c0-83.611,65.833-151.655,148.476-155.596C261.628,4.227,258.821,4,255.957,4  C169.811,4,99.982,73.829,99.982,159.975v23.996c5.378-1.109,10.701-2.379,15.997-3.722L115.98,159.975L115.98,159.975z" data-original="#D7E9FF"/><path style="fill:#94C1FF;" d="M355.942,40.232c34.229,28.636,55.99,71.672,55.99,119.743v8.717h-0.156  c-75.191-27.433-129.025-68.708-129.025-68.708C328.103,68.149,355.942,40.232,355.942,40.232z" data-original="#94C1FF"/><g>
	<path style="fill:#5C9EFF" d="M355.942,40.232C328.821,17.599,293.952,4,255.958,4c-2.53,0-4.999,0.258-7.502,0.379   c34.671,1.871,66.415,14.927,91.489,35.854c34.229,28.636,55.99,71.672,55.99,119.743v2.593c5.172,2.093,10.438,4.152,15.842,6.124   h0.156v-8.717C411.933,111.904,390.171,68.868,355.942,40.232z" data-original="#5C9EFF" class="active-path"/>
	<path style="fill:#5C9EFF" d="M288.913,291.953c7.195,0,13.037,3.602,13.037,7.999s-5.842,7.999-13.037,7.999   c-7.115,0-12.959-3.602-12.959-7.999S281.798,291.953,288.913,291.953z" data-original="#5C9EFF" class="active-path"/>
</g><path style="fill:#D7E9FF;" d="M339.944,339.945c0,8.718,3.516,16.154,9.357,22.637l-1.359,1.359c0,0-15.996,39.994-91.985,39.994  c-75.987,0-94.703-39.994-94.703-39.994c6.64-6.718,10.717-14.639,10.717-23.996v-31.034c27.195,28.792,59.189,47.032,83.986,47.032  c24.793,0,56.866-18.24,83.987-47.032L339.944,339.945L339.944,339.945z" data-original="#D7E9FF"/><g>
	<path style="fill:#116FFF" d="M491.919,511.918H19.996c-2.21,0-3.999-1.789-3.999-4v-47.992c0-34.268,17.778-47.43,50.585-59.732   c5.729-2.141,13.021-4.327,20.739-6.632c5.343-1.601,11.041-3.312,16.876-5.187c18.575-5.937,41.513-14.389,54.21-27.245   c6.437-6.507,9.565-13.436,9.565-21.185c0-2.211,1.789-3.999,3.999-3.999c2.211,0,4,1.788,4,3.999   c0,9.818-3.996,18.841-11.873,26.809c-13.919,14.1-38.021,23.027-57.459,29.237c-5.878,1.89-11.631,3.616-17.024,5.233   c-7.917,2.367-14.752,4.413-20.228,6.46c-30.753,11.529-45.391,22.293-45.391,52.241v43.993h463.926v-43.993   c0-29.948-14.639-40.712-45.398-52.249c-5.547-2.062-12.904-4.265-20.701-6.601c-26.246-7.857-58.912-17.638-75.473-35.799   c-6.904-7.671-10.404-16.185-10.404-25.332c0-2.211,1.789-3.999,4-3.999s4,1.788,4,3.999c0,7.21,2.725,13.74,8.326,19.958   c15.061,16.505,47.883,26.331,71.848,33.51c7.92,2.375,15.404,4.616,21.199,6.772c32.824,12.311,50.602,25.473,50.602,59.74v47.992   C495.919,510.129,494.13,511.918,491.919,511.918z" data-original="#116FFF" class=""/>
	<path style="fill:#116FFF" d="M255.958,359.942c-25.855,0-58.338-18.052-86.892-48.281   c-31.393-33.206-51.875-75.215-56.182-115.263c-0.238-2.199,1.352-4.171,3.546-4.406c2.328-0.246,4.171,1.355,4.406,3.546   c4.128,38.35,23.824,78.667,54.042,110.623c26.671,28.237,57.74,45.781,81.08,45.781c23.418,0,54.483-17.536,81.081-45.773   c2.672-2.836,5.266-5.741,7.859-8.804c1.428-1.679,3.943-1.882,5.631-0.469c1.68,1.43,1.898,3.952,0.461,5.64   c-2.688,3.172-5.373,6.187-8.139,9.116C314.808,341.438,281.501,359.942,255.958,359.942z" data-original="#116FFF" class=""/>
	<path style="fill:#116FFF" d="M370.493,271.957c-0.678,0-1.365-0.172-2.006-0.539c-1.906-1.109-2.562-3.555-1.453-5.469   c16.293-28.073,24.902-57.803,24.902-85.978c0-2.21,1.789-4,3.998-4c2.211,0,4,1.789,4,4c0,29.582-8.982,60.701-25.98,89.994   C373.22,271.246,371.876,271.957,370.493,271.957z" data-original="#116FFF" class=""/>
	<path style="fill:#116FFF" d="M171.971,347.304c-2.21,0-3.999-1.789-3.999-3.999v-34.394c0-2.21,1.789-3.999,3.999-3.999   c2.211,0,4,1.789,4,3.999v34.394C175.971,345.515,174.182,347.304,171.971,347.304z" data-original="#116FFF" class=""/>
	<path style="fill:#116FFF" d="M339.944,343.945c-2.211,0-4-1.789-4-4v-31.034c0-2.21,1.789-3.999,4-3.999s4,1.789,4,3.999v31.034   C343.944,342.156,342.155,343.945,339.944,343.945z" data-original="#116FFF" class=""/>
	<path style="fill:#116FFF" d="M187.969,496.24c-0.434,0-0.879-0.07-1.312-0.219c-2.086-0.727-3.191-3.007-2.465-5.093   c2.082-5.999,4.921-11.74,8.44-17.052c17.192-25.848,48.387-39.002,80.097-32.097c2.162,0.469,3.521,2.602,3.053,4.757   c-0.469,2.156-2.592,3.516-4.756,3.055c-28.508-6.21-56.351,5.577-71.728,28.706c-3.144,4.749-5.687,9.89-7.553,15.256   C191.171,495.209,189.625,496.24,187.969,496.24z" data-original="#116FFF" class=""/>
	<path style="fill:#116FFF" d="M323.946,496.24c-1.656,0-3.201-1.031-3.779-2.687c-1.859-5.366-4.406-10.507-7.555-15.271   c-3.271-4.858-7.084-9.264-11.334-13.052c-1.641-1.477-1.781-4.008-0.312-5.648c1.477-1.647,4-1.78,5.656-0.32   c4.732,4.242,8.982,9.147,12.646,14.584c3.537,5.343,6.373,11.084,8.459,17.083c0.719,2.086-0.383,4.366-2.469,5.093   C324.821,496.17,324.384,496.24,323.946,496.24z" data-original="#116FFF" class=""/>
	<path style="fill:#116FFF" d="M247.959,495.92c-1.023,0-2.046-0.391-2.828-1.171c-1.562-1.562-1.562-4.094,0-5.655l71.989-71.988   c1.562-1.562,4.094-1.562,5.654,0c1.562,1.562,1.562,4.093,0,5.654l-71.988,71.989C250.005,495.529,248.982,495.92,247.959,495.92z   " data-original="#116FFF" class=""/>
	<path style="fill:#116FFF" d="M411.933,163.974c-2.211,0-4-1.789-4-3.999c0-45.146-19.887-87.67-54.553-116.677   c-27.277-22.762-61.873-35.299-97.422-35.299c-83.799,0-151.976,68.177-151.976,151.976c0,2.21-1.788,3.999-3.999,3.999   s-3.999-1.789-3.999-3.999C95.984,71.766,167.75,0,255.958,0c37.417,0,73.833,13.197,102.545,37.162   c36.494,30.53,57.43,75.293,57.43,122.812C415.933,162.185,414.144,163.974,411.933,163.974z" data-original="#116FFF" class=""/>
	<path style="fill:#116FFF" d="M99.983,379.939c-2.211,0-3.999-1.789-3.999-4V159.975c0-2.211,1.788-4,3.999-4s3.999,1.789,3.999,4   v215.964C103.982,378.15,102.194,379.939,99.983,379.939z" data-original="#116FFF" class=""/>
	<path style="fill:#116FFF" d="M411.933,379.939c-2.211,0-4-1.789-4-4V159.975c0-2.211,1.789-4,4-4s4,1.789,4,4v215.964   C415.933,378.15,414.144,379.939,411.933,379.939z" data-original="#116FFF" class=""/>
	<path style="fill:#116FFF" d="M99.979,187.97c-1.859,0-3.523-1.3-3.913-3.19c-0.445-2.164,0.945-4.281,3.108-4.726   c73.164-15.091,138.966-53.651,181.28-83.342c44.508-31.241,72.379-59.025,72.66-59.303c1.562-1.562,4.094-1.562,5.654-0.008   c1.562,1.559,1.562,4.093,0,5.655c-0.281,0.281-28.604,28.531-73.721,60.201c-42.932,30.128-109.753,69.263-184.256,84.631   C100.518,187.942,100.245,187.97,99.979,187.97z" data-original="#116FFF" class=""/>
	<path style="fill:#116FFF" d="M411.776,172.691c-0.461,0-0.922-0.078-1.375-0.242c-74.895-27.328-129.541-68.876-130.08-69.29   c-1.758-1.343-2.086-3.854-0.742-5.608c1.344-1.75,3.859-2.074,5.609-0.742c0.529,0.41,54.256,41.24,127.955,68.126   c2.07,0.758,3.148,3.054,2.383,5.128C414.933,171.684,413.401,172.691,411.776,172.691z" data-original="#116FFF" class=""/>
	<path style="fill:#116FFF" d="M301.95,303.951c-1.992,0-3.719-1.484-3.969-3.507c-0.271-2.188,1.281-4.188,3.469-4.46   c0.102-0.016,9.654-1.219,22.605-4.32c27.301-6.421,73.082-21.684,73.082-51.862c0-5.64-1.609-11.713-4.779-18.048   c-0.984-1.977-0.188-4.378,1.789-5.367c1.975-0.98,4.373-0.188,5.365,1.789c3.734,7.456,5.625,14.732,5.625,21.626   c0,35.693-49.648,52.69-79.238,59.643c-13.404,3.21-23.051,4.429-23.457,4.476C302.278,303.943,302.106,303.951,301.95,303.951z" data-original="#116FFF" class=""/>
	<path style="fill:#116FFF" d="M288.913,311.95c-9.506,0-16.957-5.272-16.957-11.998s7.451-11.998,16.957-11.998   c9.553,0,17.037,5.272,17.037,11.998S298.466,311.95,288.913,311.95z M288.913,295.953c-5.553,0-8.959,2.585-8.959,3.999   c0,1.413,3.406,3.999,8.959,3.999c5.602,0,9.037-2.586,9.037-3.999C297.95,298.538,294.515,295.953,288.913,295.953z" data-original="#116FFF" class=""/>
	<path style="fill:#116FFF" d="M255.958,407.935c-77.64,0-97.52-40.571-98.324-42.298c-0.937-2-0.074-4.382,1.925-5.319   c1.996-0.938,4.375-0.078,5.308,1.913l0,0c0.184,0.375,18.919,37.705,91.091,37.705c72.442,0,88.127-37.104,88.268-37.479   c0.82-2.046,3.154-3.054,5.201-2.226c2.047,0.82,3.047,3.147,2.234,5.194C350.958,367.16,333.759,407.935,255.958,407.935z" data-original="#116FFF" class=""/>
</g></g> </svg>
