<svg height="512pt" viewBox="0 0 512 512" width="512pt" xmlns="http://www.w3.org/2000/svg"><path d="m8 56h496v352h-496zm0 0" fill="#fff"/><path d="m336 472h-160l16-64h128zm0 0" fill="#fff"/><path d="m152 472h208c4.417969 0 8 3.582031 8 8v16c0 4.417969-3.582031 8-8 8h-208c-4.417969 0-8-3.582031-8-8v-16c0-4.417969 3.582031-8 8-8zm0 0" fill="#58abfb"/><path d="m320 408h-128l-4 16h136zm0 0" fill="#fff"/><path d="m64 40h384v320h-384zm0 0" fill="#fff"/><path d="m64 8h48v32h-48zm0 0" fill="#fff"/><path d="m408 8h40v32h-40zm0 0" fill="#fff"/><path d="m112 8h296v32h-296zm0 0" fill="#58abfb"/><path d="m160 192h16c4.417969 0 8 3.582031 8 8v64c0 4.417969-3.582031 8-8 8h-16c-4.417969 0-8-3.582031-8-8v-64c0-4.417969 3.582031-8 8-8zm0 0" fill="#58abfb"/><path d="m128 200h24v64h-24c-4.417969 0-8-3.582031-8-8v-48c0-4.417969 3.582031-8 8-8zm0 0" fill="#fff"/><path d="m352 272h-16c-4.417969 0-8-3.582031-8-8v-64c0-4.417969 3.582031-8 8-8h16c4.417969 0 8 3.582031 8 8v64c0 4.417969-3.582031 8-8 8zm0 0" fill="#58abfb"/><path d="m384 264h-24v-64h24c4.417969 0 8 3.582031 8 8v48c0 4.417969-3.582031 8-8 8zm0 0" fill="#fff"/><path d="m240 288h32c4.417969 0 8 3.582031 8 8v16c0 4.417969-3.582031 8-8 8h-32c-4.417969 0-8-3.582031-8-8v-16c0-4.417969 3.582031-8 8-8zm0 0" fill="#58abfb"/><path d="m8 360h496v48h-496zm0 0" fill="#58abfb"/><g fill="#107be8"><path d="m504 48h-48v-40c0-4.417969-3.582031-8-8-8h-384c-4.417969 0-8 3.582031-8 8v40h-48c-4.417969 0-8 3.582031-8 8v352c0 4.417969 3.582031 8 8 8h173.753906l-12 48h-17.753906c-8.835938 0-16 7.164062-16 16v16c0 8.835938 7.164062 16 16 16h208c8.835938 0 16-7.164062 16-16v-16c0-8.835938-7.164062-16-16-16h-17.753906l-12-48h173.753906c4.417969 0 8-3.582031 8-8v-352c0-4.417969-3.582031-8-8-8zm-8 16v288h-40v-288zm-376-32v-16h280v16zm320 16v304h-368v-304zm0-16h-24v-16h24zm-336-16v16h-32v-16zm-48 48v288h-40v-288zm304 432h-208v-16h208zm-34.246094-32h-139.507812l12-48h115.507812zm-5.753906-64h-304v-32h480v32zm0 0"/><path d="m128 192c-8.835938 0-16 7.164062-16 16v48c0 8.835938 7.164062 16 16 16h18.222656c2.835938 4.933594 8.085938 7.984375 13.777344 8v8c0 13.253906 10.746094 24 24 24h40c0 8.835938 7.164062 16 16 16h32c8.835938 0 16-7.164062 16-16v-16c0-8.835938-7.164062-16-16-16h-32c-8.835938 0-16 7.164062-16 16h-40c-4.417969 0-8-3.582031-8-8v-8c8.835938 0 16-7.164062 16-16v-64c0-8.835938-7.164062-16-16-16v-8c0-44.183594 35.816406-80 80-80s80 35.816406 80 80v8c-8.835938 0-16 7.164062-16 16v64c0 8.835938 7.164062 16 16 16h16c5.691406-.015625 10.941406-3.066406 13.777344-8h18.222656c8.835938 0 16-7.164062 16-16v-48c0-8.835938-7.164062-16-16-16h-18.222656c-2.835938-4.933594-8.085938-7.984375-13.777344-8v-8c0-53.019531-42.980469-96-96-96s-96 42.980469-96 96v8c-5.691406.015625-10.941406 3.066406-13.777344 8zm112 104h32v16h-32zm144-40h-16v-48h16zm-32 8h-16v-64h16zm-192-64h16v64h-16zm-32 8h16v48h-16zm0 0"/><path d="m384 64h40v16h-40zm0 0"/><path d="m368 96h56v16h-56zm0 0"/><path d="m368 128h56v16h-56zm0 0"/><path d="m104 64h40v16h-40zm0 0"/><path d="m88 96h56v16h-56zm0 0"/><path d="m88 128h56v16h-56zm0 0"/></g></svg>