<svg height="512pt" viewBox="0 -48 512.04363 512" width="512pt" xmlns="http://www.w3.org/2000/svg"><path d="m32.050781 256.023438h440.429688c26.613281 23.472656 35.925781 60.964843 23.378906 94.160156-12.542969 33.195312-44.320313 55.164062-79.808594 55.171875h-309.332031c-36.96875.046875-70.667969-21.164063-86.617188-54.515625-15.945312-33.351563-11.296874-72.902344 11.949219-101.644532zm0 0" fill="#58abfb"/><path d="m224.050781 74.6875h256v181.335938h-7.570312c-15.578125-13.757813-35.648438-21.34375-56.429688-21.335938h-.53125c-5.421875-65.464844-59.546875-116.183594-125.226562-117.339844-65.679688-1.15625-121.558594 47.625-129.28125 112.859375-41.324219-28.414062-97.578125-20.132812-128.960938 18.988281v-238.507812h149.335938zm0 0" fill="#fff"/><path d="m472.480469 256.023438h-440.429688v-6.828126c31.382813-39.121093 87.636719-47.402343 128.960938-18.988281 7.722656-65.234375 63.601562-114.015625 129.28125-112.859375 65.679687 1.15625 119.804687 51.875 125.226562 117.339844h.53125c20.78125-.007812 40.851563 7.578125 56.429688 21.335938zm0 0" fill="#58abfb"/><g fill="#107be8"><path d="m42.71875 21.355469h132.960938l28.445312 42.667969h-76.074219v21.332031h341.335938v128h21.332031v-138.667969c0-5.890625-4.777344-10.664062-10.667969-10.664062h-250.292969l-39.464843-59.253907c-1.984375-2.976562-5.332031-4.7578122-8.90625-4.7460935h-149.335938c-5.890625 0-10.664062 4.7734375-10.664062 10.6640625v192h21.332031zm0 0"/><path d="m479.53125 248.011719c-15.226562-13.390625-34.292969-21.625-54.476562-23.53125-9.953126-65.625-65.039063-114.976563-131.359376-117.691407-66.320312-2.714843-125.25 41.972657-140.535156 106.566407-39.511718-19.136719-86.71875-12.109375-118.941406 17.710937-32.222656 29.820313-42.886719 76.339844-26.863281 117.21875 16.023437 40.875 55.457031 67.757813 99.363281 67.738282h309.332031c39.929688-.003907 75.683594-24.722657 89.796875-62.070313 14.113282-37.351563 3.632813-79.539063-26.316406-105.941406zm-63.480469 146.675781h-309.332031c-47.105469-.050781-85.28125-38.226562-85.332031-85.332031-.078125-19.496094 6.640625-38.410157 18.996093-53.492188 27.898438-34.765625 77.894532-42.113281 114.613282-16.84375 3.082031 2.105469 7.042968 2.445313 10.4375.894531 3.398437-1.546874 5.738281-4.761718 6.171875-8.46875 7.113281-59.769531 58.328125-104.445312 118.511719-103.378906 60.179687 1.066406 109.78125 47.523438 114.777343 107.507813.703125 5.617187 5.496094 9.820312 11.15625 9.78125 18.183594.011719 35.738281 6.652343 49.378907 18.675781 23.277343 20.542969 31.417968 53.34375 20.445312 82.386719-10.976562 29.039062-38.777344 48.261719-69.824219 48.269531zm0 0"/><path d="m309.503906 158.027344-5.335937 20.640625c20.75 5.347656 37.464843 20.683593 44.578125 40.894531l20.117187-7.082031c-9.464843-26.917969-31.730469-47.339844-59.359375-54.453125zm0 0"/><path d="m448.050781 138.6875v-21.332031c0-5.890625-4.773437-10.667969-10.664062-10.667969h-21.335938v21.335938h10.667969v10.664062zm0 0"/><path d="m64.050781 106.6875h64v21.335938h-64zm0 0"/><path d="m149.386719 106.6875h21.332031v21.335938h-21.332031zm0 0"/><path d="m64.050781 149.355469h42.667969v21.332031h-42.667969zm0 0"/><path d="m202.71875 320.023438h21.332031v21.332031h-21.332031zm0 0"/><path d="m245.386719 320.023438h21.332031v21.332031h-21.332031zm0 0"/><path d="m288.050781 320.023438h21.335938v21.332031h-21.335938zm0 0"/></g></svg>