<?xml version="1.0"?>
<svg xmlns="http://www.w3.org/2000/svg" xmlns:xlink="http://www.w3.org/1999/xlink" version="1.1" id="Capa_1" x="0px" y="0px" viewBox="0 0 511.505 511.505" style="enable-background:new 0 0 511.505 511.505;" xml:space="preserve" width="512px" height="512px" class=""><g><path style="fill:#94C0FD" d="M426.426,224.504c46.717,6.213,79.552,49.12,73.34,95.838c-5.61,42.188-41.448,73.792-84.007,74.082  h-320c-47.127-0.322-85.071-38.786-84.749-85.914c0.29-42.558,31.895-78.396,74.082-84.006v-0.747  c0-47.128,38.205-85.333,85.333-85.333h10.667c0-47.128,38.205-85.333,85.333-85.333s85.333,38.205,85.333,85.333v0.747  c42.637,5.372,74.628,41.612,74.667,84.587V224.504z" data-original="#87D2F3" class="active-path" data-old_color="#5D9EFD"/><g>
	<path style="fill:#1A70FD" d="M436.741,215.469c-3.671-41.661-33.862-76.165-74.667-85.333   c-4.568-52.822-51.091-91.94-103.913-87.373c-45.591,3.942-82.061,39.516-87.137,84.994h-0.597   c-49.748,0.12-91.199,38.148-95.595,87.701C23.12,227.161-9.314,278.569,2.389,330.28c9.879,43.654,48.614,74.689,93.371,74.81   h53.333v-21.333H95.76c-41.236-0.302-74.42-33.975-74.119-75.211c0.272-37.202,27.889-68.528,64.764-73.461   c5.452-1.008,9.395-5.783,9.355-11.328c0.047-41.218,33.449-74.62,74.667-74.667h10.667c5.891,0,10.667-4.776,10.667-10.667   c0.206-41.237,33.803-74.5,75.04-74.293c41.237,0.206,74.5,33.803,74.293,75.04c0.002,5.382,4.014,9.919,9.355,10.581   c37.536,4.826,65.567,36.908,65.312,74.752c0.002,5.382,4.014,9.919,9.355,10.581c40.873,5.468,69.575,43.035,64.106,83.908   c-4.933,36.874-36.259,64.492-73.461,64.764h-53.333v21.333h53.333c53.019-0.141,95.886-43.236,95.745-96.255   C511.386,264.094,480.375,225.367,436.741,215.469z" data-original="#2170A6" class="" data-old_color="##1A70F"/>
	<path style="fill:#1A70FD" d="M266.426,106.424V85.091c-29.441,0.035-53.298,23.893-53.333,53.333h21.333   C234.426,120.751,248.753,106.424,266.426,106.424z" data-original="#2170A6" class="" data-old_color="##1A70F"/>
	<path style="fill:#1A70FD" d="M194.885,269.549l-42.667,42.667l15.083,15.083l24.459-24.459v134.251   c0.527,5.365-3.395,10.14-8.76,10.667c-0.634,0.062-1.273,0.062-1.907,0h-42.667v21.333h42.667   c17.171,0.502,31.498-13.01,32-30.181c0.018-0.606,0.018-1.213,0-1.819V302.84l24.459,24.459l15.083-15.083l-42.667-42.667   C205.802,265.385,199.05,265.385,194.885,269.549L194.885,269.549z" data-original="#2170A6" class="" data-old_color="##1A70F"/>
	<path style="fill:#1A70FD" d="M319.76,432.675V298.424c-0.526-5.365,3.395-10.14,8.76-10.667c0.634-0.062,1.273-0.062,1.907,0   h42.667v-21.333h-42.667c-17.171-0.502-31.498,13.01-32,30.181c-0.018,0.606-0.018,1.213,0,1.819v134.251l-24.459-24.459   l-15.083,15.083l42.667,42.667c4.165,4.164,10.917,4.164,15.083,0l42.667-42.667l-15.083-15.083L319.76,432.675z" data-original="#2170A6" class="" data-old_color="##1A70F"/>
	<path style="fill:#1A70FD" d="M394.426,266.424h21.333v21.333h-21.333V266.424z" data-original="#2170A6" class="" data-old_color="##1A70F"/>
	<path style="fill:#1A70FD" d="M95.76,447.757h21.333v21.333H95.76V447.757z" data-original="#2170A6" class="" data-old_color="##1A70F"/>
</g></g> </svg>
