<svg height="512pt" viewBox="-56 0 512 512" width="512pt" xmlns="http://www.w3.org/2000/svg"><path d="m48 512c-26.472656 0-48-21.527344-48-48s21.527344-48 48-48c4.425781 0 8 3.574219 8 8s-3.574219 8-8 8c-17.648438 0-32 14.351562-32 32s14.351562 32 32 32c4.425781 0 8 3.574219 8 8s-3.574219 8-8 8zm0 0"/><path d="m48 488c-13.230469 0-24-10.769531-24-24s10.769531-24 24-24c4.425781 0 8 3.574219 8 8s-3.574219 8-8 8c-4.414062 0-8 3.585938-8 8s3.585938 8 8 8c4.425781 0 8 3.574219 8 8s-3.574219 8-8 8zm0 0"/><path d="m392 432h-344c-4.425781 0-8-3.574219-8-8s3.574219-8 8-8h344c4.425781 0 8 3.574219 8 8s-3.574219 8-8 8zm0 0"/><path d="m392 512h-344c-4.425781 0-8-3.574219-8-8s3.574219-8 8-8h344c4.425781 0 8 3.574219 8 8s-3.574219 8-8 8zm0 0"/><path d="m8 56c-4.425781 0-8-3.585938-8-8 0-26.472656 21.527344-48 48-48 4.425781 0 8 3.585938 8 8s-3.574219 8-8 8c-17.648438 0-32 14.351562-32 32 0 4.414062-3.574219 8-8 8zm0 0"/><path d="m8 472c-4.425781 0-8-3.574219-8-8v-416c0-4.414062 3.574219-8 8-8s8 3.585938 8 8v416c0 4.425781-3.574219 8-8 8zm0 0"/><path d="m392 16h-344c-4.425781 0-8-3.585938-8-8s3.574219-8 8-8h344c4.425781 0 8 3.585938 8 8s-3.574219 8-8 8zm0 0"/><path d="m392 432c-4.425781 0-8-3.574219-8-8v-416c0-4.414062 3.574219-8 8-8s8 3.585938 8 8v416c0 4.425781-3.574219 8-8 8zm0 0"/><path d="m392 512c-4.425781 0-8-3.574219-8-8v-80c0-4.425781 3.574219-8 8-8s8 3.574219 8 8v80c0 4.425781-3.574219 8-8 8zm0 0"/><path d="m64 432c-4.425781 0-8-3.574219-8-8v-416c0-4.414062 3.574219-8 8-8s8 3.585938 8 8v416c0 4.425781-3.574219 8-8 8zm0 0"/><path d="m360 456h-312c-4.425781 0-8-3.574219-8-8s3.574219-8 8-8h312c4.425781 0 8 3.574219 8 8s-3.574219 8-8 8zm0 0"/><path d="m360 488h-312c-4.425781 0-8-3.574219-8-8s3.574219-8 8-8h312c4.425781 0 8 3.574219 8 8s-3.574219 8-8 8zm0 0"/><path d="m304 248h-152c-17.648438 0-32-14.351562-32-32v-88c0-17.648438 14.351562-32 32-32h152c17.648438 0 32 14.351562 32 32v88c0 17.648438-14.351562 32-32 32zm-152-136c-8.824219 0-16 7.175781-16 16v88c0 8.824219 7.175781 16 16 16h152c8.824219 0 16-7.175781 16-16v-88c0-8.824219-7.175781-16-16-16zm0 0"/><path d="m200 112c-4.425781 0-8-3.585938-8-8v-24c0-4.414062 3.574219-8 8-8s8 3.585938 8 8v24c0 4.414062-3.574219 8-8 8zm0 0"/><path d="m256 88h-56c-4.425781 0-8-3.585938-8-8s3.574219-8 8-8h56c4.425781 0 8 3.585938 8 8s-3.574219 8-8 8zm0 0"/><path d="m256 112c-4.425781 0-8-3.585938-8-8v-24c0-4.414062 3.574219-8 8-8s8 3.585938 8 8v24c0 4.414062-3.574219 8-8 8zm0 0"/><path d="m160 112c-4.425781 0-8-3.585938-8-8v-8c0-4.414062 3.574219-8 8-8s8 3.585938 8 8v8c0 4.414062-3.574219 8-8 8zm0 0"/><path d="m296 112c-4.425781 0-8-3.585938-8-8v-8c0-4.414062 3.574219-8 8-8s8 3.585938 8 8v8c0 4.414062-3.574219 8-8 8zm0 0"/><path d="m272 160h-88c-4.425781 0-8-3.585938-8-8s3.574219-8 8-8h88c4.425781 0 8 3.585938 8 8s-3.574219 8-8 8zm0 0"/><path d="m272 200h-88c-4.425781 0-8-3.585938-8-8s3.574219-8 8-8h88c4.425781 0 8 3.585938 8 8s-3.574219 8-8 8zm0 0"/><path d="m328 336h-200c-4.425781 0-8-3.574219-8-8s3.574219-8 8-8h200c4.425781 0 8 3.574219 8 8s-3.574219 8-8 8zm0 0"/><path d="m328 304h-200c-4.425781 0-8-3.574219-8-8s3.574219-8 8-8h200c4.425781 0 8 3.574219 8 8s-3.574219 8-8 8zm0 0"/><path d="m272 368h-88c-4.425781 0-8-3.574219-8-8s3.574219-8 8-8h88c4.425781 0 8 3.574219 8 8s-3.574219 8-8 8zm0 0"/><path d="m360 512c-4.425781 0-8-3.574219-8-8v-80c0-4.425781 3.574219-8 8-8s8 3.574219 8 8v80c0 4.425781-3.574219 8-8 8zm0 0"/></svg>