<svg height="512pt" viewBox="0 -12 512 512" width="512pt" xmlns="http://www.w3.org/2000/svg"><path d="m280 8.003906h224v48h-224zm0 0" fill="#5c9eff"/><path d="m280 120.003906v24h-48v-24zm0 0" fill="#d7e9ff"/><path d="m280 56.003906v64h-48v-64l48-48zm0 0" fill="#94c1ff"/><path d="m280 176.003906v32h-48v-64h48zm0 0" fill="#d7e9ff"/><path d="m232 256.003906v160h-32c0-20.5625-12.871094-38.082031-31.039062-44.882812-5.28125-2-10.960938-3.117188-16.960938-3.117188 17.679688 0 32-14.320312 32-32 0-17.683594-14.320312-32-32-32s-32 14.316406-32 32c0 17.679688 14.320312 32 32 32-6 0-11.769531 1.117188-17.039062 3.117188-18.089844 6.882812-30.960938 24.320312-30.960938 44.882812h-32v-160zm0 0" fill="#5c9eff"/><path d="m200 416.003906h-96c0-20.5625 12.871094-38 30.960938-44.882812 5.269531-2 11.039062-3.117188 17.039062-3.117188s11.679688 1.117188 16.960938 3.117188c18.167968 6.800781 31.039062 24.320312 31.039062 44.882812zm0 0" fill="#94c1ff"/><path d="m184 336.003906c0 17.671875-14.328125 32-32 32s-32-14.328125-32-32c0-17.675781 14.328125-32 32-32s32 14.324219 32 32zm0 0" fill="#d7e9ff"/><path d="m280 208.003906v-32h208c8.800781 0 16 7.199219 16 16v272c0 8.796875-7.199219 16-16 16h-464c-8.800781 0-16-7.203125-16-16v-272c0-8.800781 7.199219-16 16-16h208v32zm-48 208v-160h-160v160zm0 0" fill="#fff"/><path d="m488 176.003906h-32c8.800781 0 16 7.199219 16 16v272c0 8.796875-7.199219 16-16 16h32c8.800781 0 16-7.203125 16-16v-272c0-8.800781-7.199219-16-16-16zm0 0" fill="#d7e9ff"/><g fill="#116fff"><path d="m488 488.003906h-464c-13.230469 0-24-10.769531-24-24v-272c0-13.234375 10.769531-24 24-24 4.425781 0 8 3.574219 8 8 0 4.421875-3.574219 8-8 8-4.414062 0-8 3.582032-8 8v272c0 4.414063 3.585938 8 8 8h464c4.414062 0 8-3.585937 8-8v-272c0-4.417968-3.585938-8-8-8-4.425781 0-8-3.578125-8-8 0-4.425781 3.574219-8 8-8 13.230469 0 24 10.765625 24 24v272c0 13.230469-10.769531 24-24 24zm0 0"/><path d="m296 216.003906h-80c-4.425781 0-8-3.578125-8-8 0-4.425781 3.574219-8 8-8h80c4.425781 0 8 3.574219 8 8 0 4.421875-3.574219 8-8 8zm0 0"/><path d="m232 424.003906h-160c-4.425781 0-8-3.578125-8-8v-160c0-4.425781 3.574219-8 8-8h160c4.425781 0 8 3.574219 8 8v160c0 4.421875-3.574219 8-8 8zm-152-16h144v-144h-144zm0 0"/><path d="m280 216.003906c-4.425781 0-8-3.578125-8-8v-200c0-4.425781 3.574219-7.99999975 8-7.99999975s8 3.57421875 8 7.99999975v200c0 4.421875-3.574219 8-8 8zm0 0"/><path d="m232 216.003906c-4.425781 0-8-3.578125-8-8v-152c0-4.425781 3.574219-8 8-8s8 3.574219 8 8v152c0 4.421875-3.574219 8-8 8zm0 0"/><path d="m232 184.003906h-208c-4.425781 0-8-3.578125-8-8 0-4.425781 3.574219-8 8-8h208c4.425781 0 8 3.574219 8 8 0 4.421875-3.574219 8-8 8zm0 0"/><path d="m488 184.003906h-208c-4.425781 0-8-3.578125-8-8 0-4.425781 3.574219-8 8-8h208c4.425781 0 8 3.574219 8 8 0 4.421875-3.574219 8-8 8zm0 0"/><path d="m280 152.003906h-48c-4.425781 0-8-3.578125-8-8 0-4.425781 3.574219-8 8-8h48c4.425781 0 8 3.574219 8 8 0 4.421875-3.574219 8-8 8zm0 0"/><path d="m256 152.003906c-4.425781 0-8-3.578125-8-8v-8c0-4.425781 3.574219-8 8-8s8 3.574219 8 8v8c0 4.421875-3.574219 8-8 8zm0 0"/><path d="m280 128.003906h-48c-4.425781 0-8-3.578125-8-8 0-4.425781 3.574219-8 8-8h48c4.425781 0 8 3.574219 8 8 0 4.421875-3.574219 8-8 8zm0 0"/><path d="m232 64.003906c-2.046875 0-4.097656-.785156-5.65625-2.347656-3.128906-3.125-3.128906-8.183594 0-11.308594l48-48c3.128906-3.128906 8.183594-3.128906 11.3125 0 3.128906 3.125 3.128906 8.183594 0 11.308594l-48 48c-1.558594 1.5625-3.609375 2.347656-5.65625 2.347656zm0 0"/><path d="m504 64.003906h-224c-4.425781 0-8-3.578125-8-8 0-4.425781 3.574219-8 8-8h224c4.425781 0 8 3.574219 8 8 0 4.421875-3.574219 8-8 8zm0 0"/><path d="m504 16.003906h-224c-4.425781 0-8-3.578125-8-8 0-4.425781 3.574219-7.99999975 8-7.99999975h224c4.425781 0 8 3.57421875 8 7.99999975 0 4.421875-3.574219 8-8 8zm0 0"/><path d="m440 296.003906h-152c-4.425781 0-8-3.578125-8-8 0-4.425781 3.574219-8 8-8h152c4.425781 0 8 3.574219 8 8 0 4.421875-3.574219 8-8 8zm0 0"/><path d="m368 328.011719h-80c-4.425781 0-8-3.578125-8-8 0-4.425781 3.574219-8 8-8h80c4.425781 0 8 3.574219 8 8 0 4.421875-3.574219 8-8 8zm0 0"/><path d="m440 376.019531h-104c-4.425781 0-8-3.578125-8-8 0-4.425781 3.574219-8 8-8h104c4.425781 0 8 3.574219 8 8 0 4.421875-3.574219 8-8 8zm0 0"/><path d="m304 376.003906h-16c-4.425781 0-8-3.578125-8-8 0-4.425781 3.574219-8 8-8h16c4.425781 0 8 3.574219 8 8 0 4.421875-3.574219 8-8 8zm0 0"/><path d="m440 408.011719h-104c-4.425781 0-8-3.578125-8-8 0-4.425781 3.574219-8 8-8h104c4.425781 0 8 3.574219 8 8 0 4.421875-3.574219 8-8 8zm0 0"/><path d="m304 407.992188h-16c-4.425781 0-8-3.574219-8-8 0-4.421876 3.574219-8 8-8h16c4.425781 0 8 3.578124 8 8 0 4.425781-3.574219 8-8 8zm0 0"/><path d="m152 376.003906c-22.054688 0-40-17.945312-40-40 0-22.058594 17.945312-40 40-40s40 17.941406 40 40c0 22.054688-17.945312 40-40 40zm0-64c-13.230469 0-24 10.765625-24 24 0 13.230469 10.769531 24 24 24s24-10.769531 24-24c0-13.234375-10.769531-24-24-24zm0 0"/><path d="m200 424.003906c-4.425781 0-8-3.578125-8-8 0-16.53125-10.390625-31.570312-25.839844-37.425781-9.054687-3.441406-19.320312-3.425781-28.320312 0-15.457032 5.855469-25.839844 20.894531-25.839844 37.425781 0 4.421875-3.574219 8-8 8s-8-3.578125-8-8c0-23.136718 14.527344-44.1875 36.167969-52.394531 12.65625-4.785156 26.96875-4.792969 39.65625 0 21.640625 8.199219 36.175781 29.25 36.175781 52.394531 0 4.421875-3.574219 8-8 8zm0 0"/></g></svg>