<?xml version="1.0" encoding="iso-8859-1"?>
<!-- Generator: Adobe Illustrator 19.0.0, SVG Export Plug-In . SVG Version: 6.00 Build 0)  -->
<svg version="1.1" id="Capa_1" xmlns="http://www.w3.org/2000/svg" xmlns:xlink="http://www.w3.org/1999/xlink" x="0px" y="0px"
	 viewBox="0 0 511.934 511.934" style="enable-background:new 0 0 511.934 511.934;" xml:space="preserve">
<g>
	<g>
		<path d="M52.236,463.94H52.15c-2.203,0-3.953,1.789-3.953,4c0,2.21,1.828,3.999,4.039,3.999c2.202,0,3.999-1.789,3.999-3.999
			C56.235,465.729,54.439,463.94,52.236,463.94z"/>
	</g>
</g>
<g>
	<g>
		<path d="M68.234,463.94h-0.086c-2.203,0-3.953,1.789-3.953,4c0,2.21,1.828,3.999,4.039,3.999c2.202,0,3.999-1.789,3.999-3.999
			C72.233,465.729,70.437,463.94,68.234,463.94z"/>
	</g>
</g>
<g>
	<g>
		<path d="M84.231,463.94h-0.086c-2.203,0-3.953,1.789-3.953,4c0,2.21,1.829,3.999,4.039,3.999c2.203,0,4-1.789,4-3.999
			C88.231,465.729,86.434,463.94,84.231,463.94z"/>
	</g>
</g>
<g>
	<g>
		<path d="M100.229,463.94h-0.086c-2.203,0-3.953,1.789-3.953,4c0,2.21,1.829,3.999,4.039,3.999c2.203,0,4-1.789,4-3.999
			C104.229,465.729,102.432,463.94,100.229,463.94z"/>
	</g>
</g>
<g>
	<g>
		<path d="M116.227,463.94h-0.086c-2.202,0-3.952,1.789-3.952,4c0,2.21,1.828,3.999,4.038,3.999c2.203,0,4-1.789,4-3.999
			C120.227,465.729,118.43,463.94,116.227,463.94z"/>
	</g>
</g>
<g>
	<g>
		<path d="M132.225,463.94h-0.086c-2.202,0-3.952,1.789-3.952,4c0,2.21,1.828,3.999,4.038,3.999c2.203,0,4-1.789,4-3.999
			C136.225,465.729,134.428,463.94,132.225,463.94z"/>
	</g>
</g>
<g>
	<g>
		<path d="M148.223,463.94h-0.086c-2.203,0-3.953,1.789-3.953,4c0,2.21,1.828,3.999,4.039,3.999c2.203,0,3.999-1.789,4-3.999
			C152.223,465.729,150.426,463.94,148.223,463.94z"/>
	</g>
</g>
<g>
	<g>
		<path d="M164.221,463.94h-0.086c-2.203,0-3.953,1.789-3.953,4c0,2.21,1.828,3.999,4.039,3.999c2.203,0,3.999-1.789,4-3.999
			C168.221,465.729,166.424,463.94,164.221,463.94z"/>
	</g>
</g>
<g>
	<g>
		<path d="M180.219,463.94h-0.086c-2.203,0-3.953,1.789-3.953,4c0,2.21,1.828,3.999,4.039,3.999c2.203,0,3.999-1.789,3.999-3.999
			C184.218,465.729,182.422,463.94,180.219,463.94z"/>
	</g>
</g>
<g>
	<g>
		<path d="M292.204,15.998h-0.086c-2.203,0-3.952,1.789-3.952,3.999c0,2.211,1.827,4,4.038,4c2.203,0,3.999-1.789,3.999-4
			C296.203,17.787,294.407,15.998,292.204,15.998z"/>
	</g>
</g>
<g>
	<g>
		<path d="M324.2,15.998h-0.086c-2.203,0-3.953,1.789-3.953,3.999c0,2.211,1.828,4,4.039,4c2.203,0,3.999-1.789,3.999-4
			C328.199,17.787,326.402,15.998,324.2,15.998z"/>
	</g>
</g>
<g>
	<g>
		<path d="M308.202,23.996h-0.086c-2.203,0-3.953,1.789-3.953,4s1.828,4,4.039,4c2.203,0,3.999-1.789,3.999-4
			S310.404,23.996,308.202,23.996z"/>
	</g>
</g>
<g>
	<g>
		<path d="M340.182,23.996h-0.086c-2.202,0-3.952,1.789-3.952,4s1.828,4,4.038,4c2.203,0,4-1.789,4-4S342.385,23.996,340.182,23.996
			z"/>
	</g>
</g>
<g>
	<g>
		<path d="M356.18,15.998h-0.086c-2.202,0-3.952,1.789-3.952,3.999c0,2.211,1.828,4,4.038,4c2.203,0,4-1.789,4-4
			C360.18,17.787,358.383,15.998,356.18,15.998z"/>
	</g>
</g>
<g>
	<g>
		<path d="M260.208,103.978h-0.086c-2.202,0-3.952,1.789-3.952,4s1.828,4,4.038,4c2.203,0,4-1.789,4-4
			S262.411,103.978,260.208,103.978z"/>
	</g>
</g>
<g>
	<g>
		<path d="M260.208,71.99h-0.086c-2.202,0-3.952,1.789-3.952,4c0,2.21,1.828,3.999,4.038,3.999c2.203,0,4-1.789,4-3.999
			C264.208,73.779,262.411,71.99,260.208,71.99z"/>
	</g>
</g>
<g>
	<g>
		<path d="M252.209,87.988h-0.086c-2.202,0-3.952,1.789-3.952,4s1.828,4,4.038,4c2.203,0,4-1.789,4-4S254.412,87.988,252.209,87.988
			z"/>
	</g>
</g>
<g>
	<g>
		<path d="M252.209,56h-0.086c-2.202,0-3.952,1.789-3.952,4c0,2.21,1.828,3.999,4.038,3.999c2.203,0,4-1.788,4-3.999
			S254.412,56,252.209,56z"/>
	</g>
</g>
<g>
	<g>
		<path d="M260.208,40.002h-0.086c-2.202,0-3.952,1.789-3.952,4c0,2.21,1.828,3.999,4.038,3.999c2.203,0,4-1.788,4-3.999
			S262.411,40.002,260.208,40.002z"/>
	</g>
</g>
<g>
	<g>
		<path d="M372.178,23.996h-0.086c-2.203,0-3.952,1.789-3.952,4s1.827,4,4.038,4c2.203,0,4-1.789,4-4S374.381,23.996,372.178,23.996
			z"/>
	</g>
</g>
<g>
	<g>
		<path d="M388.176,15.998h-0.086c-2.203,0-3.952,1.789-3.952,3.999c0,2.211,1.827,4,4.038,4c2.203,0,4-1.789,4-4
			C392.176,17.787,390.379,15.998,388.176,15.998z"/>
	</g>
</g>
<g>
	<g>
		<path d="M404.158,23.996h-0.086c-2.203,0-3.953,1.789-3.953,4s1.828,4,4.039,4c2.204,0,4-1.789,4-4S406.361,23.996,404.158,23.996
			z"/>
	</g>
</g>
<g>
	<g>
		<path d="M420.156,15.998h-0.086c-2.203,0-3.953,1.789-3.953,3.999c0,2.211,1.828,4,4.039,4c2.204,0,4-1.789,4-4
			C424.156,17.787,422.359,15.998,420.156,15.998z"/>
	</g>
</g>
<g>
	<g>
		<path d="M436.155,23.996h-0.086c-2.203,0-3.953,1.789-3.953,4s1.828,4,4.039,4c2.203,0,3.999-1.789,3.999-4
			S438.358,23.996,436.155,23.996z"/>
	</g>
</g>
<g>
	<g>
		<path d="M452.153,15.998h-0.086c-2.203,0-3.953,1.789-3.953,3.999c0,2.211,1.828,4,4.039,4c2.203,0,3.999-1.789,3.999-4
			C456.152,17.787,454.356,15.998,452.153,15.998z"/>
	</g>
</g>
<g>
	<g>
		<path d="M468.135,23.996h-0.086c-2.203,0-3.953,1.789-3.953,4s1.828,4,4.039,4c2.202,0,3.999-1.789,3.999-4
			S470.337,23.996,468.135,23.996z"/>
	</g>
</g>
<g>
	<g>
		<path d="M484.133,15.998h-0.086c-2.203,0-3.953,1.789-3.953,3.999c0,2.211,1.828,4,4.039,4c2.202,0,3.999-1.789,3.999-4
			C488.132,17.787,486.335,15.998,484.133,15.998z"/>
	</g>
</g>
<g>
	<g>
		<path d="M500.13,23.996h-0.086c-2.202,0-3.952,1.789-3.952,4s1.828,4,4.038,4c2.203,0,4-1.789,4-4S502.333,23.996,500.13,23.996z"
			/>
	</g>
</g>
<g>
	<g>
		<path d="M483.937,191.974c-2.211,0-4,1.789-4,4c0,2.21,1.789,3.999,4,3.999c11.029,0,19.997,8.972,19.997,19.998v263.966
			c0,11.029-8.968,19.997-19.997,19.997H27.996c-11.03,0-19.997-8.968-19.997-19.997V219.971c0-11.026,8.967-19.998,19.997-19.998
			c2.211,0,4-1.789,4-3.999c0-2.211-1.789-4-4-4C12.561,191.974,0,204.535,0,219.971v263.967c0,15.435,12.56,27.996,27.996,27.996
			h455.942c15.435,0,27.996-12.561,27.995-27.997V219.971C511.933,204.535,499.373,191.974,483.937,191.974z"/>
	</g>
</g>
<g>
	<g>
		<path d="M299.961,207.972c-2.211,0-4,1.789-4,4s1.789,4,4,4c2.203,0,3.999,1.793,3.999,4c0,2.207-1.796,4-3.999,4h-87.989
			c-2.203,0-4-1.793-4-4c0-2.207,1.797-4,4-4c2.211,0,4-1.789,4-4s-1.79-4-4-4c-6.617,0-11.999,5.383-11.999,11.999
			c0,6.617,5.383,11.999,11.999,11.999h87.989c6.616,0,11.998-5.382,11.998-11.999C311.959,213.354,306.577,207.972,299.961,207.972
			z"/>
	</g>
</g>
<g>
	<g>
		<path d="M283.963,119.984H227.97c-2.211,0-4,1.789-4,3.999v87.989c0,2.211,1.79,4,4,4h55.993c2.211,0,4-1.789,4-4v-87.989
			C287.963,121.773,286.174,119.984,283.963,119.984z M279.963,207.973H231.97v-79.989h47.993V207.973z"/>
	</g>
</g>
<g>
	<g>
		<path d="M227.97,207.971c-2.211,0-4,1.79-4,4v4c0,2.211,1.79,4,4,4c2.211,0,4-1.788,4-4v-4
			C231.97,209.76,230.181,207.971,227.97,207.971z"/>
	</g>
</g>
<g>
	<g>
		<path d="M243.968,207.971c-2.21,0-3.999,1.79-3.999,4v4c0,2.211,1.789,4,3.999,4c2.211,0,4-1.788,4-4v-4
			C247.968,209.76,246.179,207.971,243.968,207.971z"/>
	</g>
</g>
<g>
	<g>
		<path d="M267.965,207.971c-2.211,0-3.999,1.79-3.999,4v4c0,2.211,1.788,4,3.999,4c2.211,0,4-1.788,4-4v-4
			C271.965,209.76,270.176,207.971,267.965,207.971z"/>
	</g>
</g>
<g>
	<g>
		<path d="M283.963,207.971c-2.211,0-4,1.79-4,4v4c0,2.211,1.789,4,4,4s4-1.788,4-4v-4
			C287.963,209.76,286.174,207.971,283.963,207.971z"/>
	</g>
</g>
<g>
	<g>
		<path d="M211.972,191.975H27.996c-2.211,0-4,1.789-4,4c0,2.21,1.789,3.999,4,3.999h183.976c2.211,0,4-1.789,4-3.999
			C215.972,193.764,214.182,191.975,211.972,191.975z"/>
	</g>
</g>
<g>
	<g>
		<path d="M483.938,191.975H299.961c-2.211,0-4,1.789-4,4c0,2.21,1.789,3.999,4,3.999h183.977c2.21,0,3.999-1.789,3.999-3.999
			C487.937,193.764,486.148,191.975,483.938,191.975z"/>
	</g>
</g>
<g>
	<g>
		<path d="M283.963,151.979H227.97c-2.211,0-4,1.789-4,4s1.79,4,4,4h55.993c2.211,0,4-1.789,4-4S286.174,151.979,283.963,151.979z"
			/>
	</g>
</g>
<g>
	<g>
		<path d="M267.965,135.983h-23.997c-2.21,0-3.999,1.789-3.999,3.999c0,2.211,1.789,4,3.999,4h23.997c2.211,0,4-1.789,4-4
			C271.965,137.772,270.176,135.983,267.965,135.983z"/>
	</g>
</g>
<g>
	<g>
		<path d="M235.969,39.994c-2.211,0-4,1.789-4,4v63.992c0,2.211,1.79,4,4,4c2.211,0,4-1.79,4-4V43.994
			C239.969,41.783,238.18,39.994,235.969,39.994z"/>
	</g>
</g>
<g>
	<g>
		<path d="M275.964,39.994c-2.21,0-3.999,1.789-3.999,4v63.992c0,2.211,1.789,4,3.999,4c2.211,0,3.999-1.79,3.999-4V43.994
			C279.963,41.783,278.175,39.994,275.964,39.994z"/>
	</g>
</g>
<g>
	<g>
		<path d="M507.934,0H291.962c-2.211,0-3.999,1.789-3.999,3.999c0,2.211,1.788,4,3.999,4h215.972c2.211,0,4-1.789,4-4
			C511.934,1.789,510.145,0,507.934,0z"/>
	</g>
</g>
<g>
	<g>
		<path d="M507.934,39.994H291.962c-2.211,0-3.999,1.789-3.999,4c0,2.21,1.788,3.999,3.999,3.999h215.972c2.211,0,4-1.788,4-3.999
			C511.934,41.783,510.145,39.994,507.934,39.994z"/>
	</g>
</g>
<g>
	<g>
		<path d="M275.964,0c-2.21,0-3.999,1.789-3.999,3.999v39.995c0,2.21,1.789,3.999,3.999,3.999c2.211,0,3.999-1.788,3.999-3.999
			V3.999C279.963,1.789,278.175,0,275.964,0z"/>
	</g>
</g>
<g>
	<g>
		<path d="M278.792,1.172c-1.562-1.562-4.093-1.562-5.655,0l-39.996,39.994c-1.562,1.563-1.562,4.094,0,5.656
			c0.782,0.781,1.805,1.171,2.828,1.171s2.047-0.39,2.828-1.171l39.995-39.994C280.354,5.265,280.354,2.734,278.792,1.172z"/>
	</g>
</g>
<g>
	<g>
		<path d="M179.969,271.965H51.993c-2.211,0-4,1.789-4,3.999v127.983c0,2.211,1.789,4,4,4h127.976c2.21,0,3.999-1.789,3.999-4
			V275.964C183.968,273.754,182.179,271.965,179.969,271.965z M175.969,399.948H55.992V279.963h119.977V399.948z"/>
	</g>
</g>
<g>
	<g>
		<path d="M451.942,287.963h-231.97c-2.211,0-4,1.788-4,3.999s1.79,3.999,4,3.999h231.97c2.211,0,3.999-1.788,3.999-3.999
			S454.153,287.963,451.942,287.963z"/>
	</g>
</g>
<g>
	<g>
		<path d="M451.942,319.958h-231.97c-2.211,0-4,1.789-4,4c0,2.21,1.79,3.999,4,3.999h231.97c2.211,0,3.999-1.789,3.999-3.999
			C455.941,321.747,454.153,319.958,451.942,319.958z"/>
	</g>
</g>
<g>
	<g>
		<path d="M451.942,351.954h-231.97c-2.211,0-4,1.789-4,3.999c0,2.211,1.79,4,4,4h231.97c2.211,0,3.999-1.789,3.999-4
			C455.941,353.743,454.153,351.954,451.942,351.954z"/>
	</g>
</g>
<g>
	<g>
		<path d="M347.955,383.95H219.971c-2.211,0-4,1.788-4,3.999s1.79,4,4,4h127.984c2.21,0,3.999-1.789,3.999-4
			S350.165,383.95,347.955,383.95z"/>
	</g>
</g>
<g>
	<g>
		<path d="M347.955,463.94H219.971c-2.211,0-4,1.789-4,4c0,2.21,1.79,3.999,4,3.999h127.984c2.21,0,3.999-1.789,3.999-3.999
			C351.954,465.729,350.165,463.94,347.955,463.94z"/>
	</g>
</g>
<g>
	<g>
		<path d="M179.977,431.944H51.993c-2.211,0-4,1.789-4,4s1.789,3.999,4,3.999h127.984c2.21,0,3.999-1.788,3.999-3.999
			S182.187,431.944,179.977,431.944z"/>
	</g>
</g>
<g>
	<g>
		<path d="M439.943,391.95c-26.465,0-47.993,21.528-47.993,47.993c0,26.466,21.528,47.994,47.993,47.994
			c26.465,0,47.994-21.529,47.994-47.994C487.937,413.478,466.409,391.95,439.943,391.95z M439.943,479.937
			c-22.052,0-39.994-17.943-39.994-39.995s17.942-39.994,39.994-39.994c22.051,0,39.995,17.942,39.995,39.994
			S461.995,479.937,439.943,479.937z"/>
	</g>
</g>
<g>
	<g>
		<path d="M458.769,437.116c-1.562-1.562-4.093-1.562-5.655,0l-27.997,27.996c-1.562,1.562-1.562,4.093,0,5.655
			c0.781,0.781,1.805,1.172,2.828,1.172s2.046-0.391,2.827-1.172l27.997-27.996C460.331,441.209,460.331,438.678,458.769,437.116z"
			/>
	</g>
</g>
<g>
	<g>
		<path d="M470.767,449.114l-11.998-11.998c-1.562-1.562-4.093-1.562-5.655,0s-1.562,4.093,0,5.655l11.998,11.998
			c0.781,0.781,1.805,1.172,2.828,1.172s2.046-0.391,2.827-1.172C472.329,453.208,472.329,450.676,470.767,449.114z"/>
	</g>
</g>
<g>
	<g>
		<path d="M422.773,441.115c-1.562-1.562-4.094-1.562-5.656,0l-7.998,7.999c-1.562,1.562-1.562,4.093,0,5.655
			c0.78,0.781,1.804,1.172,2.827,1.172c1.024,0,2.047-0.391,2.828-1.172l7.999-7.999
			C424.335,445.208,424.335,442.677,422.773,441.115z"/>
	</g>
</g>
<g>
	<g>
		<path d="M430.772,449.114l-7.998-7.999c-1.562-1.562-4.094-1.562-5.656,0s-1.562,4.093,0,5.655l7.999,7.999
			c0.781,0.781,1.805,1.172,2.828,1.172s2.046-0.391,2.827-1.172C432.334,453.208,432.334,450.676,430.772,449.114z"/>
	</g>
</g>
<g>
	<g>
		<path d="M427.945,407.948c-6.616,0-11.999,5.382-11.999,11.998c0,6.616,5.383,11.998,11.999,11.998
			c6.616,0,11.998-5.382,11.998-11.998C439.943,413.33,434.561,407.948,427.945,407.948z M427.945,423.946
			c-2.203,0-3.999-1.797-3.999-4s1.796-4,3.999-4c2.202,0,3.999,1.797,3.999,4S430.147,423.946,427.945,423.946z"/>
	</g>
</g>
<g>
	<g>
		<path d="M156.23,377.342l-3.515-1.258c-4.054-1.437-14.537-5.14-17.005-7.116c-0.579-1.492-2.032-2.547-3.727-2.547
			c-2.21,0-3.999,1.789-3.999,3.999c0,4.617,5.506,7.351,22.067,13.202l3.374,1.211c5.695,2.14,6.554,3.468,6.554,6.921v8.194H71.99
			v-8.194c0-3.453,0.859-4.781,6.538-6.913l3.391-1.219c16.56-5.858,22.067-8.585,22.067-13.202c0-2.21-1.79-3.999-4-3.999
			c-1.695,0-3.148,1.055-3.726,2.547c-2.477,1.975-12.951,5.678-17.006,7.116l-3.53,1.266c-5.679,2.132-11.733,5.178-11.733,14.404
			v12.193c0,2.211,1.789,4,4,4h95.988c2.211,0,3.999-1.789,4-4v-12.193C167.979,382.529,161.917,379.482,156.23,377.342z"/>
	</g>
</g>
<g>
	<g>
		<path d="M115.977,303.96c-18.239,0-31.988,14.467-31.988,33.652c0,19.38,18.318,38.339,31.988,38.339
			c13.678,0,32.004-18.959,32.004-38.339C147.981,318.428,134.225,303.96,115.977,303.96z M115.977,367.952
			c-7.897,0-23.989-14.045-23.989-30.34c0-14.865,10.093-25.653,23.989-25.653c13.912,0,24.005,10.788,24.005,25.653
			C139.982,353.907,123.882,367.952,115.977,367.952z"/>
	</g>
</g>
<g>
	<g>
		<path d="M99.987,360.352c-2.211,0-4,1.789-4,3.999v6.069c0,2.211,1.79,4,4,4c2.21,0,4-1.789,4-4v-6.069
			C103.987,362.141,102.198,360.352,99.987,360.352z"/>
	</g>
</g>
<g>
	<g>
		<path d="M131.983,359.578c-2.21,0-3.999,1.789-3.999,4v6.842c0,2.211,1.789,4,3.999,4c2.211,0,4-1.789,4-4v-6.842
			C135.983,361.367,134.194,359.578,131.983,359.578z"/>
	</g>
</g>
<g>
</g>
<g>
</g>
<g>
</g>
<g>
</g>
<g>
</g>
<g>
</g>
<g>
</g>
<g>
</g>
<g>
</g>
<g>
</g>
<g>
</g>
<g>
</g>
<g>
</g>
<g>
</g>
<g>
</g>
</svg>
