<?xml version="1.0" encoding="iso-8859-1"?>
<!-- Generator: Adobe Illustrator 19.0.0, SVG Export Plug-In . SVG Version: 6.00 Build 0)  -->
<svg version="1.1" id="Capa_1" xmlns="http://www.w3.org/2000/svg" xmlns:xlink="http://www.w3.org/1999/xlink" x="0px" y="0px"
	 viewBox="0 0 511.874 511.874" style="enable-background:new 0 0 511.874 511.874;" xml:space="preserve">
<g>
	<path style="fill:#D7E9FF;" d="M347.914,83.979H3.999v-7.998c0-4.397,3.601-7.998,7.998-7.998h487.879
		c4.398,0,7.998,3.601,7.998,7.998v7.998H347.914z"/>
	<polygon style="fill:#D7E9FF;" points="475.882,347.915 475.882,379.907 91.978,379.907 27.993,379.907 27.993,347.915 
		155.962,347.915 	"/>
</g>
<path style="fill:#94C1FF;" d="M91.978,179.956c0,2.479,18.237,9.6,18.237,9.6c-8.716,8.876-20.877,14.395-34.233,14.395
	s-25.518-5.519-34.234-14.395c0,0,18.238-7.12,18.238-9.6v-9.837c4.96,5.916,11.278,9.837,15.996,9.837s11.036-3.921,15.996-9.837
	V179.956z"/>
<path style="fill:#5C9EFF;" d="M75.981,107.973c26.47,0,47.988,21.515,47.988,47.988c0,13.118-5.202,24.955-13.755,33.594
	c0,0-18.237-7.12-18.237-9.6v-9.837c4.64-5.519,7.998-12.716,7.998-20.155c0-15.676-10.716-25.994-23.994-25.994
	s-23.994,10.318-23.994,25.994c0,7.439,3.358,14.637,7.998,20.155v9.837c0,2.479-18.238,9.6-18.238,9.6
	c-8.552-8.639-13.754-20.476-13.754-33.594C27.993,129.488,49.511,107.973,75.981,107.973z"/>
<path style="fill:#D7E9FF;" d="M91.978,170.119c-4.96,5.916-11.278,9.837-15.996,9.837s-11.036-3.921-15.996-9.837
	c-4.64-5.519-7.998-12.716-7.998-20.155c0-15.676,10.716-25.994,23.994-25.994s23.994,10.318,23.994,25.994
	C99.976,157.403,96.617,164.6,91.978,170.119z"/>
<path style="fill:#FFFFFF;" d="M67.983,170.119c-4.64-5.519-7.998-12.716-7.998-20.155c0-14.06,8.639-23.74,19.995-25.604
	c-1.305-0.215-2.632-0.391-3.999-0.391c-13.278,0-23.994,10.318-23.994,25.994c0,7.439,3.358,14.637,7.998,20.155
	c4.96,5.916,11.278,9.837,15.996,9.837c1.242,0,2.593-0.301,3.999-0.805C76.028,177.73,71.639,174.48,67.983,170.119z"/>
<path style="fill:#94C1FF;" d="M83.979,170.119c4.64-5.519,7.998-12.716,7.998-20.155c0-14.06-8.639-23.74-19.995-25.604
	c1.304-0.215,2.632-0.391,3.999-0.391c13.278,0,23.994,10.318,23.994,25.994c0,7.439-3.358,14.637-7.998,20.155
	c-4.96,5.916-11.278,9.837-15.996,9.837c-1.242,0-2.593-0.301-3.999-0.805C75.935,177.73,80.324,174.48,83.979,170.119z"/>
<g>
	<polygon style="fill:#D7E9FF;" points="347.914,203.95 155.962,203.95 155.962,163.959 147.964,155.961 155.962,147.963 
		155.962,107.973 347.914,107.973 	"/>
	<polygon style="fill:#D7E9FF;" points="347.914,323.92 155.962,323.92 155.962,227.944 347.914,227.944 347.914,259.936 
		355.912,267.934 347.914,275.932 	"/>
</g>
<path style="fill:#5C9EFF;" d="M427.894,227.944c26.471,0,47.988,21.515,47.988,47.988c0,13.114-5.201,24.955-13.754,33.593
	c0,0-18.238-7.123-18.238-9.599v-9.841c4.641-5.515,7.998-12.716,7.998-20.152c0-15.676-10.715-25.993-23.994-25.993
	c-13.277,0-23.994,10.317-23.994,25.993c0,7.437,3.359,14.638,7.998,20.152v9.841c0,2.476-18.236,9.599-18.236,9.599
	c-8.553-8.638-13.756-20.479-13.756-33.593C379.906,249.458,401.425,227.944,427.894,227.944z"/>
<path style="fill:#94C1FF;" d="M443.89,299.926c0,2.476,18.238,9.599,18.238,9.599c-8.717,8.873-20.877,14.396-34.234,14.396
	c-13.355,0-25.516-5.522-34.232-14.396c0,0,18.236-7.123,18.236-9.599v-9.841c4.961,5.92,11.279,9.841,15.996,9.841
	c4.719,0,11.037-3.921,15.996-9.841V299.926z"/>
<path style="fill:#D7E9FF;" d="M443.89,290.085c-4.959,5.92-11.277,9.841-15.996,9.841c-4.717,0-11.035-3.921-15.996-9.841
	c-4.639-5.515-7.998-12.716-7.998-20.152c0-15.676,10.717-25.993,23.994-25.993c13.279,0,23.994,10.317,23.994,25.993
	C451.888,277.37,448.531,284.571,443.89,290.085z"/>
<g>
	<path style="fill:#FFFFFF;" d="M347.914,83.979H3.999v335.918h23.994h367.909l63.984,23.994v-23.994h47.988V83.979H347.914z
		 M355.912,267.934l-7.998,7.998v47.988H155.962v-95.977h191.952v31.992L355.912,267.934z M155.962,147.963v-39.99h191.952v95.977
		H155.962v-39.99l-7.998-7.998L155.962,147.963z M75.981,107.973c26.47,0,47.988,21.515,47.988,47.988
		c0,13.118-5.202,24.955-13.755,33.594c-8.716,8.876-20.877,14.395-34.233,14.395s-25.518-5.519-34.234-14.395
		c-8.552-8.639-13.754-20.476-13.754-33.594C27.993,129.488,49.511,107.973,75.981,107.973z M475.882,379.907H91.978H27.993v-31.992
		h127.969h319.92V379.907z M462.128,309.525c-8.717,8.873-20.877,14.396-34.234,14.396c-13.355,0-25.516-5.522-34.232-14.396
		c-8.553-8.638-13.756-20.479-13.756-33.593c0-26.474,21.52-47.988,47.988-47.988c26.471,0,47.988,21.515,47.988,47.988
		C475.882,289.046,470.681,300.887,462.128,309.525z"/>
	<path style="fill:#FFFFFF;" d="M419.896,290.085c-4.639-5.515-7.998-12.716-7.998-20.152c0-14.059,8.639-23.74,19.996-25.603
		c-1.305-0.215-2.633-0.391-4-0.391c-13.277,0-23.994,10.317-23.994,25.993c0,7.437,3.359,14.638,7.998,20.152
		c4.961,5.92,11.279,9.841,15.996,9.841c1.242,0,2.594-0.297,4-0.805C427.941,297.701,423.552,294.451,419.896,290.085z"/>
</g>
<path style="fill:#94C1FF;" d="M435.892,290.085c4.641-5.515,7.998-12.716,7.998-20.152c0-14.059-8.639-23.74-19.994-25.603
	c1.305-0.215,2.633-0.391,3.998-0.391c13.279,0,23.994,10.317,23.994,25.993c0,7.437-3.357,14.638-7.998,20.152
	c-4.959,5.92-11.277,9.841-15.996,9.841c-1.242,0-2.592-0.297-3.998-0.805C427.847,297.701,432.238,294.451,435.892,290.085z"/>
<rect x="155.967" y="107.977" style="fill:#FFFFFF;" width="191.95" height="7.998"/>
<rect x="155.967" y="195.947" style="fill:#94C1FF;" width="191.95" height="7.998"/>
<rect x="155.967" y="227.947" style="fill:#FFFFFF;" width="191.95" height="7.998"/>
<rect x="155.967" y="315.927" style="fill:#94C1FF;" width="191.95" height="7.998"/>
<path style="fill:#FFFFFF;" d="M19.995,67.983h-7.998c-4.397,0-7.998,3.601-7.998,7.998v7.998h7.998v-7.998
	C11.997,71.583,15.598,67.983,19.995,67.983z"/>
<path style="fill:#94C1FF;" d="M491.878,67.983h7.998c4.406,0,7.998,3.601,7.998,7.998v7.998h-7.998v-7.998
	C499.876,71.583,496.285,67.983,491.878,67.983z"/>
<g>
	<path style="fill:#116FFF;" d="M476.125,399.902c-2.209,0-4.037-1.789-4.037-3.999s1.75-3.999,3.951-3.999h0.086
		c2.203,0,4,1.789,4,3.999S478.328,399.902,476.125,399.902z"/>
	<path style="fill:#116FFF;" d="M460.128,399.902c-2.209,0-4.037-1.789-4.037-3.999s1.75-3.999,3.951-3.999h0.086
		c2.203,0,4,1.789,4,3.999S462.332,399.902,460.128,399.902z"/>
	<path style="fill:#116FFF;" d="M444.132,399.902c-2.209,0-4.037-1.789-4.037-3.999s1.75-3.999,3.951-3.999h0.086
		c2.203,0,4,1.789,4,3.999S446.335,399.902,444.132,399.902z"/>
	<path style="fill:#116FFF;" d="M20.237,79.98c-2.21,0-4.038-1.788-4.038-3.999c0-2.21,1.75-3.999,3.952-3.999h0.086
		c2.203,0,3.999,1.789,3.999,3.999C24.236,78.192,22.44,79.98,20.237,79.98z"/>
	<path style="fill:#116FFF;" d="M36.233,79.98c-2.21,0-4.038-1.788-4.038-3.999c0-2.21,1.75-3.999,3.952-3.999h0.086
		c2.202,0,3.999,1.789,3.999,3.999C40.232,78.192,38.436,79.98,36.233,79.98z"/>
	<path style="fill:#116FFF;" d="M52.229,79.98c-2.21,0-4.038-1.788-4.038-3.999c0-2.21,1.75-3.999,3.952-3.999h0.086
		c2.202,0,3.999,1.789,3.999,3.999C56.229,78.192,54.432,79.98,52.229,79.98z"/>
	<path style="fill:#116FFF;" d="M507.875,87.978c-2.209,0-3.998-1.788-3.998-3.999v-7.998c0-2.206-1.797-3.999-4-3.999H11.997
		c-2.203,0-3.999,1.793-3.999,3.999v7.998c0,2.211-1.789,3.999-3.999,3.999S0,86.19,0,83.979v-7.998
		c0-6.615,5.382-11.997,11.997-11.997h487.879c6.615,0,11.998,5.382,11.998,11.997v7.998
		C511.875,86.19,510.085,87.978,507.875,87.978z"/>
	<path style="fill:#116FFF;" d="M459.886,447.89c-0.477,0-0.945-0.086-1.406-0.258l-63.305-23.736H3.999
		c-2.21,0-3.999-1.789-3.999-3.999V83.979c0-2.21,1.789-3.999,3.999-3.999h503.875c2.211,0,4,1.789,4,3.999v335.918
		c0,2.21-1.789,3.999-4,3.999h-43.988v19.995c0,1.312-0.641,2.538-1.719,3.288C461.488,447.648,460.691,447.89,459.886,447.89z
		 M7.998,415.898h387.904c0.477,0,0.953,0.086,1.406,0.258l58.58,21.963v-18.222c0-2.211,1.789-3.999,3.998-3.999h43.99V87.978
		H7.998V415.898z"/>
	<path style="fill:#116FFF;" d="M75.981,183.955c-5.928,0-13.231-4.319-19.058-11.267c-5.765-6.85-8.936-14.922-8.936-22.725
		c0-17.379,11.771-29.993,27.993-29.993s27.993,12.614,27.993,29.993c0,7.803-3.171,15.875-8.936,22.729
		C89.212,179.635,81.91,183.955,75.981,183.955z M75.981,127.968c-11.583,0-19.995,9.252-19.995,21.995
		c0,5.838,2.569,12.247,7.061,17.581c4.843,5.78,10.099,8.412,12.935,8.412c2.835,0,8.092-2.632,12.935-8.408
		c4.491-5.338,7.061-11.747,7.061-17.585C95.977,137.22,87.564,127.968,75.981,127.968z"/>
	<path style="fill:#116FFF;" d="M110.215,193.554c-0.484,0-0.976-0.086-1.452-0.273c-20.784-8.111-20.784-11.001-20.784-13.325
		c0-2.21,1.789-3.999,3.999-3.999c1.593,0,2.976,0.934,3.616,2.285c1.968,1.558,9.654,5.08,16.074,7.588
		c2.062,0.804,3.077,3.124,2.272,5.178C113.324,192.589,111.816,193.554,110.215,193.554z"/>
	<path style="fill:#116FFF;" d="M91.978,183.955c-2.21,0-3.999-1.788-3.999-3.999v-9.837c0-2.211,1.789-3.999,3.999-3.999
		c2.21,0,3.999,1.788,3.999,3.999v9.837C95.977,182.166,94.187,183.955,91.978,183.955z"/>
	<path style="fill:#116FFF;" d="M41.748,193.554c-1.601,0-3.109-0.965-3.726-2.547c-0.804-2.054,0.211-4.374,2.273-5.178
		c6.42-2.508,14.105-6.03,16.074-7.588c0.641-1.352,2.022-2.285,3.616-2.285c2.21,0,3.999,1.789,3.999,3.999
		c0,2.324,0,5.214-20.784,13.325C42.724,193.468,42.232,193.554,41.748,193.554z"/>
	<path style="fill:#116FFF;" d="M59.985,183.955c-2.21,0-3.999-1.788-3.999-3.999v-9.837c0-2.211,1.789-3.999,3.999-3.999
		s3.999,1.788,3.999,3.999v9.837C63.984,182.166,62.196,183.955,59.985,183.955z"/>
	<path style="fill:#116FFF;" d="M75.981,207.949c-14.043,0-27.212-5.538-37.085-15.594c-9.606-9.701-14.902-22.627-14.902-36.394
		c0-28.665,23.322-51.987,51.987-51.987s51.987,23.322,51.987,51.987c0,13.767-5.296,26.692-14.911,36.405
		C103.193,202.411,90.024,207.949,75.981,207.949z M75.981,111.972c-24.252,0-43.989,19.733-43.989,43.989
		c0,11.642,4.476,22.576,12.599,30.781c8.365,8.521,19.511,13.208,31.391,13.208c11.88,0,23.025-4.687,31.383-13.196
		c8.131-8.217,12.606-19.151,12.606-30.793C119.971,131.706,100.233,111.972,75.981,111.972z"/>
	<path style="fill:#116FFF;" d="M427.894,303.925c-5.936,0-13.238-4.319-19.057-11.271c-5.766-6.843-8.936-14.919-8.936-22.722
		c0-17.378,11.77-29.992,27.992-29.992s27.994,12.614,27.994,29.992c0,7.803-3.172,15.879-8.936,22.729
		C441.134,299.606,433.832,303.925,427.894,303.925z M427.894,247.939c-11.582,0-19.994,9.252-19.994,21.994
		c0,5.835,2.57,12.248,7.061,17.574c4.842,5.788,10.1,8.42,12.934,8.42c2.836,0,8.092-2.632,12.936-8.412
		c4.49-5.334,7.061-11.747,7.061-17.582C447.89,257.191,439.478,247.939,427.894,247.939z"/>
	<path style="fill:#116FFF;" d="M462.128,313.525c-0.484,0-0.977-0.086-1.453-0.273c-20.783-8.115-20.783-11.006-20.783-13.325
		c0-2.21,1.789-3.999,3.998-3.999c1.594,0,2.969,0.93,3.617,2.281c1.969,1.562,9.654,5.084,16.074,7.592
		c2.062,0.804,3.076,3.124,2.273,5.178C465.238,312.556,463.73,313.525,462.128,313.525z"/>
	<path style="fill:#116FFF;" d="M443.89,303.925c-2.209,0-3.998-1.789-3.998-3.999v-9.841c0-2.211,1.789-4,3.998-4
		c2.211,0,4,1.789,4,4v9.841C447.89,302.136,446.101,303.925,443.89,303.925z"/>
	<path style="fill:#116FFF;" d="M393.662,313.525c-1.602,0-3.109-0.969-3.727-2.547c-0.805-2.054,0.211-4.374,2.273-5.178
		c6.42-2.508,14.105-6.03,16.074-7.592c0.648-1.352,2.023-2.281,3.615-2.281c2.211,0,4,1.789,4,3.999c0,2.319,0,5.21-20.785,13.325
		C394.638,313.439,394.146,313.525,393.662,313.525z"/>
	<path style="fill:#116FFF;" d="M411.898,303.925c-2.209,0-3.998-1.789-3.998-3.999v-9.841c0-2.211,1.789-4,3.998-4
		c2.211,0,4,1.789,4,4v9.841C415.898,302.136,414.109,303.925,411.898,303.925z"/>
	<path style="fill:#116FFF;" d="M427.894,327.919c-14.035,0-27.211-5.538-37.084-15.59c-9.607-9.701-14.902-22.635-14.902-36.397
		c0-28.665,23.322-51.987,51.986-51.987c28.666,0,51.988,23.322,51.988,51.987c0,13.763-5.297,26.696-14.91,36.405
		C455.107,322.381,441.931,327.919,427.894,327.919z M427.894,231.943c-24.252,0-43.988,19.733-43.988,43.989
		c0,11.646,4.475,22.572,12.598,30.781c8.373,8.521,19.52,13.208,31.391,13.208c11.873,0,23.018-4.687,31.383-13.2
		c8.131-8.217,12.607-19.144,12.607-30.789C471.884,251.676,452.146,231.943,427.894,231.943z"/>
	<path style="fill:#116FFF;" d="M347.914,207.949H155.962c-2.211,0-3.999-1.789-3.999-3.999v-38.334l-6.827-6.827
		c-1.562-1.562-1.562-4.093,0-5.654l6.827-6.826v-38.335c0-2.21,1.788-3.999,3.999-3.999h191.952c2.211,0,4,1.789,4,3.999v95.977
		C351.914,206.16,350.125,207.949,347.914,207.949z M159.961,199.951h183.955v-87.979H159.961v35.991
		c0,1.062-0.422,2.078-1.172,2.827l-5.171,5.171l5.171,5.171c0.75,0.75,1.172,1.765,1.172,2.827V199.951z"/>
	<path style="fill:#116FFF;" d="M347.914,327.919H155.962c-2.211,0-3.999-1.789-3.999-3.999v-95.977c0-2.21,1.788-3.999,3.999-3.999
		h191.952c2.211,0,4,1.789,4,3.999v30.337l6.826,6.826c1.562,1.562,1.562,4.093,0,5.654l-6.826,6.827v46.332
		C351.914,326.13,350.125,327.919,347.914,327.919z M159.961,319.921h183.955v-43.989c0-1.062,0.422-2.077,1.172-2.827l5.17-5.171
		l-5.17-5.171c-0.75-0.75-1.172-1.765-1.172-2.827v-27.993H159.961V319.921z"/>
	<path style="fill:#116FFF;" d="M475.882,383.906H27.993c-2.21,0-3.999-1.789-3.999-3.999v-31.992c0-2.21,1.789-3.999,3.999-3.999
		h447.889c2.211,0,4,1.789,4,3.999v31.992C479.882,382.117,478.093,383.906,475.882,383.906z M31.992,375.908h439.892v-23.994
		H31.992V375.908z"/>
	<path style="fill:#116FFF;" d="M91.978,399.902H27.993c-2.21,0-3.999-1.789-3.999-3.999s1.789-3.999,3.999-3.999h63.984
		c2.21,0,3.999,1.789,3.999,3.999S94.187,399.902,91.978,399.902z"/>
	<path style="fill:#116FFF;" d="M323.919,255.937H179.956c-2.211,0-3.999-1.789-3.999-3.999s1.788-3.999,3.999-3.999h143.963
		c2.211,0,4,1.789,4,3.999S326.13,255.937,323.919,255.937z"/>
	<path style="fill:#116FFF;" d="M323.919,279.931H179.956c-2.211,0-3.999-1.789-3.999-3.999s1.788-3.999,3.999-3.999h143.963
		c2.211,0,4,1.789,4,3.999S326.13,279.931,323.919,279.931z"/>
	<path style="fill:#116FFF;" d="M251.938,303.925h-71.982c-2.211,0-3.999-1.789-3.999-3.999s1.788-3.999,3.999-3.999h71.982
		c2.21,0,3.999,1.789,3.999,3.999S254.148,303.925,251.938,303.925z"/>
	<path style="fill:#116FFF;" d="M323.919,135.966H179.956c-2.211,0-3.999-1.788-3.999-3.999c0-2.21,1.788-3.999,3.999-3.999h143.963
		c2.211,0,4,1.789,4,3.999C327.919,134.178,326.13,135.966,323.919,135.966z"/>
	<path style="fill:#116FFF;" d="M323.919,159.96H179.956c-2.211,0-3.999-1.788-3.999-3.999c0-2.21,1.788-3.999,3.999-3.999h143.963
		c2.211,0,4,1.789,4,3.999C327.919,158.172,326.13,159.96,323.919,159.96z"/>
	<path style="fill:#116FFF;" d="M251.938,183.955h-71.982c-2.211,0-3.999-1.788-3.999-3.999c0-2.21,1.788-3.999,3.999-3.999h71.982
		c2.21,0,3.999,1.789,3.999,3.999S254.148,183.955,251.938,183.955z"/>
</g>
<g>
</g>
<g>
</g>
<g>
</g>
<g>
</g>
<g>
</g>
<g>
</g>
<g>
</g>
<g>
</g>
<g>
</g>
<g>
</g>
<g>
</g>
<g>
</g>
<g>
</g>
<g>
</g>
<g>
</g>
</svg>
