<?xml version="1.0"?>
<svg xmlns="http://www.w3.org/2000/svg" viewBox="0 0 96 96" width="512" height="512"><g id="_5.Folder" data-name="5.Folder"><path d="M59,31v3H40V29H57A1.959,1.959,0,0,1,59,31Z" style="fill:#fff"/><path d="M11,34V26.98S11,23,14.98,23H39.01a.97.97,0,0,1,.99.99V34H67a4,4,0,0,1,4,4L67,88a4,4,0,0,1-4,4H9a4,4,0,0,1-4-4L3.32,66.97,1,38a4,4,0,0,1,4-4Z" style="fill:#58abfb"/><path d="M53,68v8c0,3.31-7.61,6-17,6s-17-2.69-17-6V68c0,3.31,7.61,6,17,6S53,71.31,53,68Z" style="fill:#58abfb"/><path d="M53,59v9c0,3.31-7.61,6-17,6s-17-2.69-17-6V59c0,3.31,7.61,6,17,6S53,62.31,53,59Z" style="fill:#fff"/><path d="M36,56c9.39,0,17-2.69,17-6v9c0,3.31-7.61,6-17,6s-17-2.69-17-6V50C19,53.31,26.61,56,36,56Z" style="fill:#58abfb"/><ellipse cx="36" cy="50" rx="17" ry="6" style="fill:#fff"/><path d="M73,4A22,22,0,1,1,51,26,22,22,0,0,1,73,4Z" style="fill:#fff"/><path d="M54,50c0-4.547-9.274-7-18-7s-18,2.453-18,7V76c0,4.547,9.274,7,18,7s18-2.453,18-7V58a1,1,0,0,0-2,0V76c0,2.088-6.087,5-16,5s-16-2.912-16-5V53.324C23.191,55.726,29.728,57,36,57,44.726,57,54,54.547,54,50ZM36,55c-9.913,0-16-2.912-16-5s6.087-5,16-5,16,2.912,16,5S45.913,55,36,55Z" style="fill:#107be8"/><path d="M48.493,70.992A34.919,34.919,0,0,1,36,73a34.269,34.269,0,0,1-12.725-2.1,1,1,0,0,0-.787,1.838A36.281,36.281,0,0,0,36,75a36.967,36.967,0,0,0,13.251-2.156,1,1,0,0,0-.758-1.852Z" style="fill:#107be8"/><path d="M50.037,62.421a1,1,0,0,0-1.312-.525A34.269,34.269,0,0,1,36,64a34.912,34.912,0,0,1-12.5-2.009,1,1,0,1,0-.758,1.85A36.929,36.929,0,0,0,36,66a36.281,36.281,0,0,0,13.512-2.266A1,1,0,0,0,50.037,62.421Z" style="fill:#107be8"/><path d="M89.2,9.678A1,1,0,1,0,87.8,11.1,21,21,0,1,1,73,5a21.074,21.074,0,0,1,5.058.613,1,1,0,0,0,.48-1.942A23.02,23.02,0,0,0,50,26c0,.674.035,1.34.092,2H41V23.99A1.949,1.949,0,0,0,39.01,22H14.98A4.8,4.8,0,0,0,10,26.98V33H5a5.019,5.019,0,0,0-5,5.08L4,88a5.006,5.006,0,0,0,5,5H63a4.985,4.985,0,0,0,5-4.92L71.13,48.918c.617.05,1.24.082,1.87.082A23,23,0,0,0,89.2,9.678ZM69.138,48.733,66,88a3,3,0,0,1-3,3H9a3.026,3.026,0,0,1-3-3.08L2,38a3,3,0,0,1,3-3H27a1,1,0,0,0,0-2H12V26.98A2.846,2.846,0,0,1,14.98,24L39,24.019V34a1,1,0,0,0,1,1h8a1,1,0,0,0,0-2H41V30h9.355a23.05,23.05,0,0,0,18.8,18.672C69.152,48.694,69.139,48.711,69.138,48.733Z" style="fill:#107be8"/><path d="M63.707,29.293a1,1,0,0,0-1.414,1.414l4,4a1,1,0,0,0,1.414,0l17-17a1,1,0,0,0-1.414-1.414L67,32.586Z" style="fill:#107be8"/></g></svg>
