<svg height="512pt" viewBox="0 0 512 512" width="512pt" xmlns="http://www.w3.org/2000/svg"><path d="m437.332031 74.667969c0 11.78125-9.550781 21.332031-21.332031 21.332031s-21.332031-9.550781-21.332031-21.332031c0-11.785157 9.550781-21.335938 21.332031-21.335938s21.332031 9.550781 21.332031 21.335938zm0 0" fill="#fff"/><path d="m446.398438 167.574219c32.109374 6.613281 54.933593 23.253906 54.933593 42.773437 0 25.171875-38.183593 45.652344-85.332031 45.652344s-85.332031-20.480469-85.332031-45.652344c0-19.519531 22.824219-36.160156 54.933593-42.773437 15.679688 26.558593 30.398438 47.890625 30.398438 47.890625s14.71875-21.332032 30.398438-47.890625zm0 0" fill="#fff"/><path d="m416 10.667969c37.6875.035156 68.230469 30.578125 68.265625 68.265625 0 20.160156-19.625 58.027344-37.867187 88.640625-15.679688 26.558593-30.398438 47.890625-30.398438 47.890625s-14.71875-21.332032-30.398438-47.890625c-18.242187-30.613281-37.867187-68.480469-37.867187-88.640625.035156-37.6875 30.578125-68.230469 68.265625-68.265625zm21.332031 64c0-11.785157-9.550781-21.335938-21.332031-21.335938s-21.332031 9.550781-21.332031 21.335938c0 11.78125 9.550781 21.332031 21.332031 21.332031 11.765625-.035156 21.296875-9.566406 21.332031-21.332031zm0 0" fill="#58abfb"/><path d="m181.121094 458.667969c-2.882813 23.785156-39.894532 42.664062-85.121094 42.664062-47.148438 0-85.332031-20.480469-85.332031-45.652343 0-19.519532 22.824219-36.160157 54.933593-42.773438 15.679688 26.558594 30.398438 47.894531 30.398438 47.894531s14.71875-21.335937 30.398438-47.894531c32.109374 6.613281 54.933593 23.253906 54.933593 42.773438-.015625 1-.089843 1.996093-.210937 2.988281zm0 0" fill="#fff"/><path d="m96 256c37.6875.035156 68.230469 30.578125 68.265625 68.265625 0 20.160156-19.625 58.027344-37.867187 88.640625-15.679688 26.558594-30.398438 47.894531-30.398438 47.894531s-14.71875-21.335937-30.398438-47.894531c-18.242187-30.613281-37.867187-68.480469-37.867187-88.640625.035156-37.6875 30.578125-68.230469 68.265625-68.265625zm21.332031 64c0-11.78125-9.550781-21.332031-21.332031-21.332031s-21.332031 9.550781-21.332031 21.332031 9.550781 21.332031 21.332031 21.332031c11.765625-.035156 21.296875-9.566406 21.332031-21.332031zm0 0" fill="#58abfb"/><path d="m117.332031 320c0 11.78125-9.550781 21.332031-21.332031 21.332031s-21.332031-9.550781-21.332031-21.332031 9.550781-21.332031 21.332031-21.332031 21.332031 9.550781 21.332031 21.332031zm0 0" fill="#fff"/><g fill="#107be8"><path d="m128 320c0-17.671875-14.328125-32-32-32s-32 14.328125-32 32 14.328125 32 32 32 32-14.328125 32-32zm-42.667969 0c0-5.890625 4.777344-10.667969 10.667969-10.667969s10.667969 4.777344 10.667969 10.667969-4.777344 10.667969-10.667969 10.667969-10.667969-4.777344-10.667969-10.667969zm0 0"/><path d="m142.644531 406.132812c21.335938-37.492187 32.289063-65.066406 32.289063-81.867187 0-43.59375-35.339844-78.933594-78.933594-78.933594s-78.933594 35.339844-78.933594 78.933594c0 16.800781 10.921875 44.363281 32.300782 81.867187-30.414063 9.6875-49.367188 28.277344-49.367188 49.546876 0 31.585937 42.164062 56.320312 96 56.320312 45.375 0 82.890625-17.75 93.140625-42.667969h31.734375v-21.332031h-29.867188c-3.96875-17.996094-21.695312-33.375-48.363281-41.867188zm-46.644531-139.464843c31.796875.035156 57.566406 25.800781 57.601562 57.597656 0 14.070313-13.261718 44.386719-36.394531 83.199219-7.882812 13.386718-15.585937 25.496094-21.207031 34.136718-5.621094-8.609374-13.324219-20.714843-21.207031-34.082031-23.132813-38.867187-36.394531-69.183593-36.394531-83.253906.035156-31.796875 25.804687-57.5625 57.601562-57.597656zm74.527344 190.71875c-1.941406 16.074219-32.363282 33.28125-74.527344 33.28125-44 0-74.667969-18.445313-74.667969-34.988281 0-12.171876 15.832031-24.191407 39.179688-30.515626 14.027343 23.242188 26.15625 40.894532 26.667969 41.707032 1.992187 2.882812 5.273437 4.605468 8.777343 4.605468 3.507813 0 6.789063-1.722656 8.777344-4.605468.554687-.8125 12.695313-18.476563 26.667969-41.707032 23.359375 6.324219 39.179687 18.34375 39.179687 30.515626.011719.570312-.003906 1.140624-.054687 1.707031zm0 0"/><path d="m448 74.667969c0-17.675781-14.328125-32-32-32s-32 14.324219-32 32c0 17.671875 14.328125 32 32 32s32-14.328125 32-32zm-42.667969 0c0-5.890625 4.777344-10.667969 10.667969-10.667969s10.667969 4.777344 10.667969 10.667969-4.777344 10.664062-10.667969 10.664062-10.667969-4.773437-10.667969-10.664062zm0 0"/><path d="m462.644531 160.800781c21.335938-37.492187 32.289063-65.066406 32.289063-81.867187 0-43.59375-35.339844-78.933594-78.933594-78.933594s-78.933594 35.339844-78.933594 78.933594c0 16.800781 10.921875 44.363281 32.300782 81.867187-18.117188 4.558594-33.898438 15.675781-44.289063 31.199219h-37.078125v21.332031h32.246094c2.589844 30.132813 43.648437 53.335938 95.753906 53.335938 53.835938 0 96-24.738281 96-56.320313 0-21.269531-18.953125-39.863281-49.355469-49.546875zm-46.644531-139.46875c31.796875.035157 57.566406 25.804688 57.601562 57.601563 0 14.070312-13.261718 44.382812-36.394531 83.199218-7.882812 13.386719-15.585937 25.492188-21.207031 34.132813-5.621094-8.605469-13.324219-20.714844-21.207031-34.078125-23.113281-38.796875-36.371094-69.109375-36.371094-83.199219.003906-31.8125 25.769531-57.609375 57.578125-57.65625zm0 224c-44 0-74.667969-18.441406-74.667969-34.984375 0-12.171875 15.832031-24.191406 39.179688-30.519531 14.027343 23.242187 26.15625 40.898437 26.667969 41.707031 1.992187 2.886719 5.273437 4.609375 8.777343 4.609375 3.507813 0 6.789063-1.722656 8.777344-4.609375.554687-.808594 12.695313-18.472656 26.667969-41.707031 23.359375 6.328125 39.179687 18.347656 39.179687 30.519531.085938 16.542969-30.582031 34.984375-74.582031 34.984375zm0 0"/><path d="m378.667969 348.492188 10.664062-18.464844c-11.347656-6.5625-24.222656-10.019532-37.332031-10.027344h-9.109375v21.332031h9.109375c9.363281 0 18.5625 2.46875 26.667969 7.160157zm0 0"/><path d="m401.535156 374.890625c4.421875 11.113281 5 23.386719 1.644532 34.871094l20.457031 6.015625c4.722656-16.082032 3.910156-33.28125-2.304688-48.84375zm0 0"/><path d="m266.667969 341.332031h33.554687v-21.332031h-33.554687c-2.527344-.023438-5.046875-.199219-7.554688-.523438l-2.976562 21.132813c3.421875.476563 6.871093.71875 10.328125.722656zm0 0"/><path d="m352 448h-3.125v21.332031h3.125c15.523438.035157 30.664062-4.816406 43.273438-13.867187l-12.414063-17.351563c-8.992187 6.457031-19.789063 9.917969-30.859375 9.886719zm0 0"/><path d="m263.542969 448h42.664062v21.332031h-42.664062zm0 0"/><path d="m203.863281 226.316406 17.9375 11.550782c6.484375-10.054688 16.136719-17.65625 27.425781-21.609376l-6.996093-20.140624c-15.796875 5.511718-29.300781 16.140624-38.367188 30.199218zm0 0"/><path d="m192.332031 273.78125c1.589844 16.691406 8.773438 32.359375 20.382813 44.457031l15.359375-14.8125c-8.265625-8.613281-13.375-19.765625-14.496094-31.648437zm0 0"/></g></svg>