<svg height="512pt" viewBox="-48 0 512 512.00883" width="512pt" xmlns="http://www.w3.org/2000/svg"><path d="m207.996094 512.007812c-3.496094 0-6.703125-2.3125-7.695313-5.839843-1.191406-4.246094 1.289063-8.671875 5.542969-9.855469 1.929688-.550781 194.160156-59.359375 194.160156-408.304688 0-4.421874 3.578125-8 8-8 4.425782 0 8 3.578126 8 8 0 361.90625-197.441406 421.351563-205.839844 423.703126-.71875.203124-1.449218.296874-2.167968.296874zm0 0"/><path d="m408.011719 96.007812c-.40625 0-.816407-.03125-1.222657-.09375-5.417968-.832031-133.28125-21.160156-203.992187-81.832031-3.351563-2.875-3.738281-7.929687-.855469-11.28125 2.878906-3.351562 7.949219-3.726562 11.277344-.855469 67.210938 57.679688 194.738281 77.96875 196.007812 78.167969 4.371094.679688 7.363282 4.765625 6.691407 9.128907-.617188 3.933593-4.027344 6.765624-7.90625 6.765624zm0 0"/><path d="m208.003906 512.007812c-.710937 0-1.441406-.09375-2.160156-.296874-8.398438-2.351563-205.83984375-61.796876-205.83984375-423.703126 0-4.421874 3.57812475-8 7.99999975-8 4.425782 0 8 3.578126 8 8 0 348.945313 192.234375 407.753907 194.167969 408.304688 4.242187 1.199219 6.71875 5.625 5.511719 9.863281-.984375 3.527344-4.183594 5.832031-7.679688 5.832031zm0 0"/><path d="m7.996094 96.007812c-3.878906 0-7.289063-2.832031-7.894532-6.78125-.671874-4.363281 2.320313-8.449218 6.6875-9.128906 1.269532-.191406 128.800782-20.488281 196.007813-78.167968 3.351563-2.871094 8.414063-2.496094 11.28125.855468 2.871094 3.351563 2.496094 8.40625-.859375 11.28125-70.710938 60.695313-198.582031 81.015625-204 81.847656-.40625.0625-.8125.09375-1.222656.09375zm0 0"/><path d="m208.019531 486.578125c-1.007812 0-2.015625-.183594-2.96875-.570313-29.070312-11.605468-174.40625-84.40625-180.71875-377.957031-.078125-3.851562 2.601563-7.21875 6.375-8.011719 32.792969-6.804687 115.257813-27.0625 172.640625-68.132812 2.785156-1.984375 6.527344-1.984375 9.3125 0 57.382813 41.070312 139.847656 61.328125 172.640625 68.132812 3.777344.792969 6.457031 4.152344 6.375 8.011719-6.3125 293.652344-151.625 366.367188-180.695312 377.957031-.945313.386719-1.953125.570313-2.960938.570313zm-167.519531-372.265625c7.808594 268.976562 134.679688 341.351562 167.519531 355.601562 32.839844-14.226562 159.6875-86.539062 167.496094-355.601562-42.039063-9.167969-113.199219-28.992188-167.511719-66.136719-54.3125 37.144531-125.472656 56.96875-167.503906 66.136719zm0 0"/><path d="m208.003906 486.578125c-4.421875 0-8-3.578125-8-8v-440.160156c0-4.425781 3.578125-8 8-8 4.425782 0 8 3.574219 8 8v440.167969c0 4.414062-3.574218 7.992187-8 7.992187zm0 0"/><path d="m369.507812 248.007812h-323c-4.421874 0-8-3.574218-8-8 0-4.421874 3.578126-8 8-8h323c4.425782 0 8 3.578126 8 8 0 4.425782-3.582031 8-8 8zm0 0"/><path d="m208.003906 138.183594c-2.046875 0-4.09375-.78125-5.65625-2.34375-3.128906-3.128906-3.128906-8.183594 0-11.3125l58.890625-58.886719c3.125-3.128906 8.183594-3.128906 11.308594 0 3.128906 3.128906 3.128906 8.183594 0 11.3125l-58.886719 58.886719c-1.558594 1.570312-3.609375 2.34375-5.65625 2.34375zm0 0"/><path d="m208.003906 206.074219c-2.046875 0-4.09375-.785157-5.65625-2.34375-3.128906-3.128907-3.128906-8.1875 0-11.3125l108.097656-108.097657c3.128907-3.128906 8.183594-3.128906 11.3125 0 3.125 3.128907 3.125 8.183594 0 11.3125l-108.097656 108.097657c-1.558594 1.558593-3.609375 2.34375-5.65625 2.34375zm0 0"/><path d="m233.941406 248.007812c-2.050781 0-4.097656-.78125-5.65625-2.34375-3.128906-3.128906-3.128906-8.183593 0-11.3125l135.304688-135.300781c3.125-3.128906 8.183594-3.128906 11.3125 0 3.125 3.125 3.125 8.183594 0 11.308594l-135.304688 135.304687c-1.5625 1.5625-3.609375 2.34375-5.65625 2.34375zm0 0"/><path d="m301.828125 248.007812c-2.046875 0-4.097656-.78125-5.65625-2.34375-3.128906-3.128906-3.128906-8.183593 0-11.3125l79.066406-79.0625c3.125-3.128906 8.183594-3.128906 11.308594 0 3.128906 3.128907 3.128906 8.183594 0 11.3125l-79.0625 79.0625c-1.566406 1.5625-3.617187 2.34375-5.65625 2.34375zm0 0"/><path d="m58.699219 295.496094c-2.046875 0-4.09375-.785156-5.65625-2.34375-3.125-3.128906-3.125-8.183594 0-11.3125l47.488281-47.488282c3.128906-3.125 8.183594-3.125 11.3125 0 3.128906 3.128907 3.128906 8.183594 0 11.3125l-47.488281 47.488282c-1.558594 1.558594-3.605469 2.34375-5.65625 2.34375zm0 0"/><path d="m77.171875 344.898438c-2.046875 0-4.09375-.785157-5.65625-2.34375-3.128906-3.128907-3.128906-8.1875 0-11.3125l96.890625-96.890626c3.125-3.125 8.183594-3.125 11.308594 0 3.128906 3.128907 3.128906 8.183594 0 11.3125l-96.878906 96.890626c-1.566407 1.566406-3.617188 2.34375-5.664063 2.34375zm0 0"/><path d="m100.742188 389.207031c-2.050782 0-4.097657-.78125-5.65625-2.34375-3.128907-3.125-3.128907-8.183593 0-11.308593l107.261718-107.265626c3.128906-3.128906 8.183594-3.128906 11.3125 0 3.128906 3.128907 3.128906 8.183594 0 11.3125l-107.265625 107.261719c-1.558593 1.570313-3.605469 2.34375-5.652343 2.34375zm0 0"/><path d="m129.691406 428.144531c-2.046875 0-4.09375-.785156-5.65625-2.34375-3.125-3.128906-3.125-8.183593 0-11.3125l78.3125-78.3125c3.128906-3.125 8.183594-3.125 11.3125 0 3.128906 3.128907 3.128906 8.183594 0 11.3125l-78.3125 78.3125c-1.558594 1.558594-3.605468 2.34375-5.65625 2.34375zm0 0"/><path d="m164.660156 461.058594c-2.046875 0-4.097656-.785156-5.65625-2.347656-3.128906-3.125-3.128906-8.183594 0-11.308594l43.34375-43.34375c3.128906-3.128906 8.183594-3.128906 11.3125 0 3.128906 3.125 3.128906 8.183594 0 11.308594l-43.34375 43.34375c-1.558594 1.5625-3.609375 2.347656-5.65625 2.347656zm0 0"/><path d="m240.003906 360.007812c-4.421875 0-8-3.574218-8-8v-32c0-4.421874 3.578125-8 8-8 4.425782 0 8 3.578126 8 8v32c0 4.425782-3.574218 8-8 8zm0 0"/><path d="m304.003906 360.007812h-64c-4.421875 0-8-3.574218-8-8 0-4.421874 3.578125-8 8-8h64c4.425782 0 8 3.578126 8 8 0 4.425782-3.574218 8-8 8zm0 0"/><path d="m304.003906 360.007812c-4.421875 0-8-3.574218-8-8v-32c0-4.421874 3.578125-8 8-8 4.425782 0 8 3.578126 8 8v32c0 4.425782-3.574218 8-8 8zm0 0"/><path d="m255.996094 336.007812c-1.199219 0-2.421875-.269531-3.566406-.839843l-16-8c-3.953126-1.976563-5.554688-6.78125-3.578126-10.734375 1.976563-3.953125 6.785157-5.535156 10.738282-3.578125l16 8c3.949218 1.976562 5.550781 6.785156 3.574218 10.738281-1.40625 2.800781-4.230468 4.414062-7.167968 4.414062zm0 0"/><path d="m256.003906 336.007812c-2.046875 0-4.09375-.78125-5.65625-2.34375-3.128906-3.128906-3.128906-8.183593 0-11.3125l16-16c3.128906-3.125 8.183594-3.125 11.3125 0 3.128906 3.128907 3.128906 8.183594 0 11.3125l-16 16c-1.558594 1.5625-3.609375 2.34375-5.65625 2.34375zm0 0"/><path d="m288.003906 336.007812c-2.046875 0-4.09375-.78125-5.65625-2.34375l-16-16c-3.128906-3.128906-3.128906-8.183593 0-11.3125 3.128906-3.125 8.183594-3.125 11.3125 0l16 16c3.128906 3.128907 3.128906 8.183594 0 11.3125-1.558594 1.5625-3.609375 2.34375-5.65625 2.34375zm0 0"/><path d="m288.011719 336.007812c-2.839844 0-5.589844-1.511718-7.039063-4.183593-2.113281-3.878907-.664062-8.734375 3.214844-10.839844l14.753906-8c3.886719-2.105469 8.742188-.664063 10.839844 3.214844 2.109375 3.882812.664062 8.738281-3.21875 10.839843l-14.75 8c-1.207031.65625-2.511719.96875-3.800781.96875zm0 0"/><path d="m96.003906 192.023438c-4.421875 0-8-3.574219-8-8v-32c0-4.421876 3.578125-8 8-8 4.425782 0 8 3.578124 8 8v32c0 4.425781-3.574218 8-8 8zm0 0"/><path d="m160.003906 192.023438h-64c-4.421875 0-8-3.574219-8-8 0-4.421876 3.578125-8 8-8h64c4.425782 0 8 3.578124 8 8 0 4.425781-3.574218 8-8 8zm0 0"/><path d="m160.003906 192.023438c-4.421875 0-8-3.574219-8-8v-32c0-4.421876 3.578125-8 8-8 4.425782 0 8 3.578124 8 8v32c0 4.425781-3.574218 8-8 8zm0 0"/><path d="m111.996094 168.023438c-1.199219 0-2.421875-.269532-3.566406-.839844l-16-8c-3.953126-1.976563-5.554688-6.78125-3.578126-10.734375 1.984376-3.953125 6.792969-5.542969 10.738282-3.578125l16 8c3.949218 1.976562 5.550781 6.785156 3.574218 10.738281-1.40625 2.800781-4.230468 4.414063-7.167968 4.414063zm0 0"/><path d="m112.003906 168.023438c-2.046875 0-4.09375-.78125-5.65625-2.34375-3.128906-3.125-3.128906-8.183594 0-11.3125l16-16c3.128906-3.125 8.183594-3.125 11.3125 0 3.128906 3.128906 3.128906 8.1875 0 11.3125l-16 16c-1.558594 1.5625-3.609375 2.34375-5.65625 2.34375zm0 0"/><path d="m144.003906 168.023438c-2.046875 0-4.09375-.78125-5.65625-2.34375l-16-16c-3.128906-3.125-3.128906-8.183594 0-11.3125 3.128906-3.125 8.183594-3.125 11.3125 0l16 16c3.128906 3.128906 3.128906 8.1875 0 11.3125-1.558594 1.5625-3.609375 2.34375-5.65625 2.34375zm0 0"/><path d="m144.011719 168.023438c-2.839844 0-5.589844-1.511719-7.039063-4.183594-2.113281-3.878906-.664062-8.734375 3.214844-10.839844l14.753906-8c3.871094-2.109375 8.742188-.671875 10.839844 3.21875 2.109375 3.878906.664062 8.734375-3.21875 10.839844l-14.75 8c-1.207031.652344-2.511719.964844-3.800781.964844zm0 0"/></svg>